<mxfile host="app.diagrams.net" modified="2022-06-20T06:01:34.416Z" agent="5.0 (Windows NT 10.0; Win64; x64) AppleWebKit/537.36 (KHTML, like Gecko) Chrome/102.0.0.0 Safari/537.36" etag="XLp_x9iaexe2HuBrbU0n" version="20.0.1" type="github" pages="4">
  <diagram id="07fea595-8f29-1299-0266-81d95cde20df" name="Tools">
    <mxGraphModel dx="1730" dy="-1583" grid="1" gridSize="10" guides="1" tooltips="1" connect="1" arrows="1" fold="1" page="1" pageScale="1" pageWidth="1169" pageHeight="827" background="none" math="0" shadow="0">
      <root>
        <mxCell id="0" />
        <mxCell id="1" parent="0" />
        <mxCell id="645" value="" style="triangle;whiteSpace=wrap;html=1;shadow=0;labelBackgroundColor=none;strokeColor=none;fillColor=#FFFFFF;fontFamily=Helvetica;fontSize=17;fontColor=#23445d;align=center;rotation=90;gradientColor=none;flipV=1;flipH=1;opacity=20;" parent="1" vertex="1">
          <mxGeometry x="309.5" y="2782.6666666666665" width="72" height="152" as="geometry" />
        </mxCell>
        <mxCell id="NWbSl7yTvhZe52gQgMvY-669" value="Â²" style="sketch=0;aspect=fixed;html=1;points=[];align=center;image;fontSize=12;image=img/lib/mscae/SAP_HANA_on_Azure.svg;" vertex="1" parent="1">
          <mxGeometry x="69.5" y="2530" width="240" height="120" as="geometry" />
        </mxCell>
        <mxCell id="NWbSl7yTvhZe52gQgMvY-671" value="" style="shape=image;verticalLabelPosition=bottom;labelBackgroundColor=default;verticalAlign=top;aspect=fixed;imageAspect=0;image=https://mms.businesswire.com/media/20200304005595/en/777583/23/vena-logo_v1.jpg;" vertex="1" parent="1">
          <mxGeometry x="29.5" y="2841.67" width="280" height="146.46" as="geometry" />
        </mxCell>
        <mxCell id="NWbSl7yTvhZe52gQgMvY-672" value="" style="shape=image;verticalLabelPosition=bottom;labelBackgroundColor=default;verticalAlign=top;aspect=fixed;imageAspect=0;image=https://upload.wikimedia.org/wikipedia/commons/thumb/f/f9/Salesforce.com_logo.svg/2560px-Salesforce.com_logo.svg.png;" vertex="1" parent="1">
          <mxGeometry x="406.57" y="2499" width="260" height="182" as="geometry" />
        </mxCell>
        <mxCell id="NWbSl7yTvhZe52gQgMvY-674" value="" style="shape=image;verticalLabelPosition=bottom;labelBackgroundColor=default;verticalAlign=top;aspect=fixed;imageAspect=0;image=data:image/png,iVBORw0KGgoAAAANSUhEUgAAAXEAAACICAMAAAAmsyvzAAAA0lBMVEX///8RTaxa4gMARKkAQqgAPqcAQKgASKoARqoISqvZ4vE2YLMAO6afr9YAP6ebsNhQd74gV7HE0unq7vZP4QDM1uuYqtR9lMgAOaatv9+DnM6qt9nh6fWms9hffsD4+v3o+uHw/Oi4x+Pv9PqS62Sn7o6NpNIANKTT2escVbBsicVLcbvAzeb5/vVIbLj0/e+b7HXg+dUAKqI1ZLZnhcN15jiA6EfG9LBm5BzZ+Mqi7YC68qCI6VrC86sALKKD6FW18Zh450DQ9r3c+MyW624AHZ8RsVF1AAAWXUlEQVR4nO1d/WOaOheWkoSA1C+qoCJ00KmodVt1W/e9u3vv//8vvQRICJ8SW73dXp9fWvkIyZOTk5Pk5KTVKoOxud7v+oEUot9em7OBW/oYD9+bDg8+dEEplmZgIVlRpQQqBhD0ukbtS1MZAr2tnSmLfxLc6c7CjOwUCgLOplrSNxZ5R5H8M2b1z8C4jZQi3TEw3E2r3uvHlQTMc2b2D4C9RSXizQv6tlxv2Ek1Kbsz5/g3x1SvlG+m0+Gk7E0teVFtnzvPvzVW+iG+CVBZ93hh/Ai4e1QQ6AiFq8ArvHxh/AisMoSruKPLQbvd7gdYR1njRQXj/MsXxsVh8oQremBubMN3Xdf3DW1s9nXMcw7zlF8YF0YXcjJsOcO85T1cZTiHOcVyYVwUywXXNW6XZY8YJuI4R9kR/YVxQbhSOqQHo6qnjF6qeVQpM+i/MC6ICaBM4qBuOmoks5rBW/7GhXExaExdKLv6+aqhxMZInS6fwoVxIawo46pkH3jUDpiUy9yzF8aFoMnMBDk8w20zowbvuSQujIvApIyj7uGHW0NG+SId7l8YF4GbzLRKatDo+REqCvmFcRFsqNDmhzUVcHe094Ssm70wLoJJ0m+q/YYvbKgtCZgWujAugl2iVOTSme8y9Ci/bP3hwrgI6Ky4Xjq4L8OGaXLad14YF4CmU6Vy2EOCgva1iK57XhgXgJcIrOI0f4eqfmat/K6Mv7n98vmf97fk31cf7j5/effmDB8dJ/0gXjV/Z4Byivy3ZPz229fHG4Jb8uvVFfn36seX21N/d0oZb9xxtlo+oBZ8Yh/+hoz/+nF1cxWBMp78uvrw8bRfniXsyU0GnBRMkSdd52/H+LfHhO4C4+TC489TfvtazhvXDUDtQziIf/9mjH+8SvkuYZwI+pfTff0oxs2k60TJgmdzxo3BdG6uVvuVOelujObmUQauNh5NwlTMycjThNN4957nu5RxIuefhHNlb7pxrubjZY074FGMz3MvNWPc35g7CIGMYwCot1ez+gn5ItzBZI11BJI0kK725ksB1u8/Z/muYDy8/I+I4aLNnUDvyHHZZATR1vQqWL8GT2BcFmB8afZh3odUxUhxNgIf1kgiOc8xRYa7+aGJfYrbvwqEM1slf+PxXcNEje4WAkXNFa0TrAZlTx8l49QgB7P492HGNz1Q5rJLCIO7gv9LBYaOLJcmogJl1ciT+lee7ZsPn3/ekzv3Xz7/IOZh5nYjbW5MJFDqPhjK065EnI5ifC+ox7VdtcsucSBtN5m2NHoIVyeC0eqwbvmSYfTm6vOv+8z9v18/Zp/4fDhbc1QuBUnR1oXWdxTjdPaLLhrVM+6a1gEXUtXqHdTnI72G75jzQ20lo8JvPpT2je++8oJ+c3cgSbtdcB7Mca7nnSOOYpyWna511jKutUFpXnJ01atzowcPJ6LXizlP+M2Hv6seu73jn/unNlvTGvmmgDlpOoZxTWTMOZYP+khHr8J5zReX0gEBTwrRrulBOZVy8/irrnx/c91rnWJxVw3EIJQmKbN+fAzj9B2FOq3UMD6CBfsEoBChkZi7gapndjaFXldViBmm5C8rUmUH+olj8e191VMJfnIP/6x6yF8X3ZFLc6XKvL47hvFtQjCmm1CqGZ9kpEAFOlhPrseeN56NVn0LZPIG9vm3E3gg59wLrcBZTSarnmR1su1axRXT/G84TdFg4uQT93iFkej3s+0OI0tdr8y56fR1mLNe+EX7IxhfUr0Mqe6tZHzEE67A/igjgsb1DvK5rpDyQYZwHKaS7nb0N/Ogw6ehquWK5a+DDGbxirNaSluEmyFcQarpMX3tDnMl492Rj2CceRQx58MqxmeQz1OvxB1G2/PSUKrLbV6lYFw0vJeOzJVOCcrMnteMv8fbZqW8Z5MB5b3nlv8mWBcGO7aJec51ZhmIM86c5jBbxKhgfMgZKWBXOgAL+eK1oVV8yG2nVaKCfakEL3vcljHcKz5wmwps04Fk68171ipK7Eje4R5tS8tmr7jhsapSQRBnnA5/JMTGLeWM+ylXKphUG26zVBWrQWEyYpVWGw4qTcixmhauU2wpX29qyKvCLaul98Xvpa1XlSvdkbV2KuZsH6Aw4x79liqlKZcyzpy9wv6s1tpect6MeVXuWWkzWdfMyGm7tHAw33syO6XZuJ3iF3st39caqT2iSDW+gy7XgKkgiDJus29x/W8p46m/nCofmPSwAyahIMsW59qO6ldi3VSxKvkO/Adl7keDEnJ4Syl/n+s8065M6dePls10B6EcPynIOPOZC99Ir5Yy3mZPwoOzTAaTciWrhVPXdnBw6TulHGY3V//NZFV05bjCoFyyhnd4Y/yESXnS7wkynpaqM0uvljGearoGLrupxZlVCQYTELw+mIbP6jjnQvkPXdH8djgjWTB19CFzeU2bZJUtyiPtiOL2K8S432OqWeE3SZQxzhoDquxYeKQOpLwmn9PcqqU2Xw4a002ZSS02+HlskpEsmD7iTZwlEybQYHLfpfN+ibeJCON87yTzoljCOHMgzVRNDVIBTa0anykb1MgNdUarLaPe6IRKk7FmHu/ou/z0ikNpAI0cIFIH/ag/E2B8pqQWGMw8XsJ4mquGgW42tIuBqdwwuwg39F/aqiVfpXL6eGg2pQwfaANJLxlMNvrNoptMKOWAmCuNGR/uuPGMnGWgyDjLVVOu0kl3znOGVZvVcFVtwHRTGnfkvkxMG+PjTUGtTOlHUGX0kyxcZlDv3JTxen8Vd7PjA1Mou+x4psj4mObqkGGYopufkWwZVDZw1RxXAXSSjRM/xtlt00R4MM+hn+zSmm5xaOyqyboja5kyXu0F5/pjU4X8XJiSHxkWGacD06ZaPIRN1YpMr3id5Epzv1+PyR+raboQkbepG+Iub60wS7Z662sePhVy8gpdyw+b/6QEpum0QW59EQf5Nl5g3KX9IGjY8FpcN2nR+hTeTBCCqUzWZh8TIX3bPBEe36iBSC8MqRygpg4EoXqkIX+cVMbDX7gUhfl1UNz0WWBcy6/LNYBLuz2diic1e+W65aEcaONK2yxVKrXLPtV4l1dKVEWoAgGTmJLFPOMNAfdF7VVgfADFpZMJAvWta7FPVkw71pVNWSfZfEVltPGkYRZvHnM1Rkf4InJgULViGaKMK7Cshy0w3j3CR7rAuE/H0kjA54rtQKB9zaebGFfH+oY/JglQa562vE6znWoRmJYNx99CjKsl7hdRMfOMU8dEMCt7vAJ5xulUmNoW8S1kW/cS3ffp612EI9V4q/U6fv9rwrhPB9N6c4WZli0cDAswrqJ+hUdIgXHa8poNFXO5ooxvki5KZPtGOrtgiXo0NkTawYu8xbzYps0Zx7A9rZK1AuO0/+oIaOAC49TSE1JNbCClnyjAKBvbyYefTcF8Y2eNGFcVAOVVTUjPAuOMPJFYtnnGaSeIheJW9tQjPi0Ag5nKIm+N6MaIEcc4BiVAqKNbUm9UHyu4mvGnyPiRjB9T2QI4jvEuxzgbAa2mZfA2DXziq7XKU/T4n8R4iYyLFSuH6p6zqaMywWkYf/c6xk+RRHh8SRJI1qSfjXGhnVd5FBinXXPzreetUzH+3Pb4szEu5FubR4FxuoNOKfEdqcRpGL994pjzno45n1vGn5fxAZsRFkjlRHr8JsuYKPLzKi+UcTaTBRrPs56M8WeeO3yhjLOhsMh0z4kYf+L8+Nfc/PgLZTyNwSKwp/ZEjJesmwmgsAb0UhmnX5AO7DbhcSLG3zzvOudLZXxJh7LKYc8eilONgOhy/POs5b9UxluCniYEp2L8Kf4qfxcayItlnE6WCax4n4rx5/XJerGMs3UmSW7o+pCukzz3vArzOxSOKFHid/hiGU+9eyTYzMtgStfIn53x431rH+mLqY/oy2VcSx2nrSZrb7O0hp597pDphq8iKXF7brlO9+Uyzgm5VLocnYHhpNs8np/xJ++R4NygXzDjNr836UCYghG/J/kE8+NUyIVmV9KQK/w+oBfMeGZvIZaqR0LuLMjs2DwB49xet9umCdFJw1w1vWTGWw63hqpavdKVO3c4QbnT5E6xBsTt53zVLJ17tjk/u5/zRTPucx7+JO5Fe56NH+Xa41WQ3dt7KsZbbHNmwy20b9JoWtmx6otmvGWn505Et2XY38+95XI58Majyb6NUFlgoZMw/irVK1cNPBDfpZvEczNgL5vxkPJC5AkZQQg7iMQWq4hNcpqV5V8p5TevDyXyJa2evHnzwhlvGc0Co5yB8Ux8lfe1M7evPtTEV3npjLdcp/6UVYb0qVN5T3BBU65u7m6rEnjzln+usHL0dMaPib6XR23Upq7aQMwV0Gcq/2T+KhnKb+4+lc3evnt7U0t4ulXmWMZppGAk4gWbh50IaPkeFHt/KKiYAncbt0tHTHQPCt2gKOSCwZyTyvwOM7Hgbm7ef86Gv75/9/qvTAC+MoVPPT1FHPbT3Vpg1homTtqF6AFCSHJRJY1DB9aE8MJ6HPFwnXAFE7ud7p7RRWJQUmlSS7dvf+T5JKQ/fv38LRb1j5/vHhvFO0xmL5DACm6oBRKa9QEtp9x8qaYM85gcq9KfVZu0rbI4jKHBiGjoSy2uFZ0VZR5NhgERn5ewRcWplB8I3brNBjS8SmN63hRuXJXPCNhRqDUscCZBi8VpwETtGruOguHuiSfdmxZWZL12uceeORhGVqGiKooSmokIddpzTt2Odaxgi/NdNnUA9LoYH2UYqEjBeuWk/NsCs7fkcjFu7deqRbplAJFevnWhGsYOYtxJYtV1e3sR98ByDM3e/LCPvDbwricrZ71e91bzccGJdLlam5lmsrweifiKxvBHjlmjiBrGZq4bJg29I5zTx/t9841/fxi+ZVRLafzxn8c5t1xQgfsv71O1XRJj//U5TvD4P8P9rzsaiTl3jsTN148X+T4N7j++vSqclXL37UL3SfHq42t6HtBfd68/3v63ubngggsuuOCCCy644IILLrjgggv+TLhGbinGPfKox/97uEYEvyZcTbTeMX3IRjJdPjxEy5NLwdWnVss3hstjT+ZsjI1wts6GGVIJ+u1et3w90VssyFLkGGVDbWswcgiZL4QCdJEjRCTdsuD2tAtQkwU+UZisp2MG1JABy9IRKoTqjDBaLMgqaAXjK30hFDlmLCM92LV10HFOIOb+rBtncg2+nyhM1tMRMm67rmsPVkApdQhwR9HGqQrGjZGQsI4hbpPX/BWsPOHqCdD0RbwQvezVnM3yHyNkPGl/I7kuxlIF42IwJFarEyDm+NMIGhYKE/XfIGXcUOQaBz+Ocdf3yxn3M/2vX+yNJ4C95KtpUL0oQR5u9lU3m1T1T1sp7pB23Xw+3NzrZ7a6UsZ9NWJ8uF7HKtB31kSBL9eRMwxjXFtJluwME8a9dY+wte+NWtc7GfRNyp23BVZg+pu1k7Lp9rnzNxwrOWxlvJUW8i5xNPXWjrt0VKj24hZg9szwAQyDFa1vY9KHet+kHaNt9uFC2pMsO85aVbcOye6YftYf7WRL7SX1MAlT89YKlxr5uLp9uruOAFLGlzK6bpEjj6zYBdEIdPJ7aEW+bZTxjQygrC7gSokYn+mQFK2P9quFpeoYbWOBMXVZV8GibyLuyA1b58KtDLpR/+D3dAj6AMJt9NxUl+ZogQHCsdLpoa0ZJgzDyozTGQYdPZAgSI6F9DCCQaADch6jtdAlqbP4N7xzrcef1cLaUYgLVdyeHLSbLxYKBHJsJfg9CJU+QnD7RJc0ETDG/S2OLCoPJk6fRj+qgSFEHOMGVCTP97W9HrsLz5BMMttWJX1i+7aD46N4riFea76/6csqd0KR1yk2ekfWu4brX6PY83GKJLgd+v5MicM69xTJMm3fWIHYs9JWcXvpupvE70+DeBf+XO4wsluGP1TQ2DeibEWf9QMc5ta1TRS7Ie6xpO/D1EwAIgUaXu/6LvkpFDb0aQgZvx6Px9OVhGP/33rGV3JyAOYeZxkHccvsR+fY+YESh8H2Ac/4FBR0/xh2uvQf4k89RUkwsxGIstNTkkj2axzFC97L0fdag06HVO0Ox6cXGEFk+ti050wYD6mMc7uSo1Og9hjEjczB5MQgtx0T39rrZzTfZ0Dq6CGAIsW6rZ5xmR7pkOhxyjhV0CZoR2lQm8GUOca7coHxHqZu2H1MDqeYoiRG/BJEsXB6OIlgPgLk1BpDpqdlbOWwZmxIf84t3OJslYRxQG0BQ4n66X1SQWFOFq2onuLqXE4mZ2W854TYBsCKpK2W8SGgeiHPeOJyPAeSS45joSHDs4wXZNyH7DCGmOspSpScFh8NzhgfIyuqEOpcPkJtP2wYStIF+sNBq8A4KwoRaiIJe5wE1p6CaKi8xqpImNfnQahV4mo3VrJFslvL+AbR4G61jMeSTpBhfIzyjGs60+wDSHajpIzLZYzPZWkVY01OPh2B7BkiOcZDFUVtkjBfdiTjMePdmHFNAvqOOzv2LEhtlZA20sJrGfcgTkbPtYw7MtUVGcY9lI8cPEyl0NY7m4OMmziek7AsHSpGmHqQsaVzjF8j9vExKmM8tC1lS9dj4/Jc4Bg3Zck+KOPyE2Tctrj9XfZgQxLv0JHnsomMh8mNPQo3/FqtjF+npum0nPHooOa2LstnHKpyjE8REWCvU6vHqV44oMdxkmaGcTfgTsDaWzAsr87OPRgjQsK4nvGRzJ1RSb6uZKcesoyHWozeXsmE6xLGCZaBIp2z52SMrzAhdUmH734J4z6gm6tqGQ9rLamYDOPhL1bQkP09OdePnYrsyGFXeEjGBzBj0S87IPk5nBOzL8e4bbERV1zXOcY38+T2ptP8jKcnI2Vck6PNgSybngyK1mEPJ0bkBNcwbrDjpfuZM1o1zIb5cwAJOSOkx3Wj6dFBgAcYd/tKorndEfnbx8l+xp61jdJHGeuwh5PUZiA6ny/H+HSRTDUPzsz4kiwC2bNAiU8NDNQgzIfvSWoJ40sLk3kLv4ukGsZbE9SZE+adzJgzLCmUnWjoOkfxIb5+OzbQhgGOdO4BxltTGH2/pe0WpLF5Fl6F3/cnIDqF3AiS6bGEcQ3hbZh5d4rlKH85xsMhaZ8wbazxWbWKFBDgDrDi0YS3UJTtum9JUgnjrYmF1fDuYlvLuL8FoL/eSlY7dw7xxJLD17cS0ntx2TVVBtv9VgZqJG6HGG/NdSxtnS2G/SQ7oO84QSceS4SqCW93GmO8NdZldb1vA2K8t4p6PDQE5K2zVmnRz4Lr77G1tQjYLrOprOvWwtHaD2R0Mnx4IHIwfVgkO+N0cneuLaJ1zu7376Qs0iJp3ZPv8RDFdxZQt/BmIufOsNz0LZJAwIpoOwti8O3j1GcPyakyy8UDeWS7UJJMff83TsiTLLJsZyZm4VgimW8nFo8R6PpDWI7RQzJsH7bJ0yhZn+h9lxLGvz9EpdXWUdl759MpbGU5I4ju0BuEF4xo+T58gOQyncN2B97GJ3fd+C65xhLwWUq25w3JPEjuYMnwxsbLrvsaG2/AEqfvJ581uN/0eS1MmUtU8zacOT3wSKiiNBtRPujTfjE1fxCV9fcHLWOAxXYcX3AklsmEcxc9KcLCBY3hWP2pZmsTjAtK5YKTwFhbuiwhBNt/hI78LTAw22q/d9YFxN8D/wPEAv20H5W/CAAAAABJRU5ErkJggg==;" vertex="1" parent="1">
          <mxGeometry x="780" y="2530" width="362" height="133.42" as="geometry" />
        </mxCell>
        <mxCell id="NWbSl7yTvhZe52gQgMvY-675" value="" style="shape=image;verticalLabelPosition=bottom;labelBackgroundColor=default;verticalAlign=top;aspect=fixed;imageAspect=0;image=https://webapp.io/blog/content/images/2019/11/postgres.png;" vertex="1" parent="1">
          <mxGeometry x="220" y="3060.42" width="230.72" height="130" as="geometry" />
        </mxCell>
        <mxCell id="NWbSl7yTvhZe52gQgMvY-676" value="" style="shape=image;verticalLabelPosition=bottom;labelBackgroundColor=default;verticalAlign=top;aspect=fixed;imageAspect=0;image=https://www.nanogrid.com/wp-content/uploads/2019/04/nanoGrid-for-nature-white.png;" vertex="1" parent="1">
          <mxGeometry x="772" y="2708" width="370" height="88.23" as="geometry" />
        </mxCell>
        <mxCell id="NWbSl7yTvhZe52gQgMvY-677" value="" style="shape=image;verticalLabelPosition=bottom;labelBackgroundColor=default;verticalAlign=top;aspect=fixed;imageAspect=0;image=https://www.greenpowermonitor.com/wp-content/uploads/2021/02/2021_GreenPowerMonitor_PNG_Web.png;" vertex="1" parent="1">
          <mxGeometry x="772" y="2897" width="350" height="60" as="geometry" />
        </mxCell>
        <mxCell id="NWbSl7yTvhZe52gQgMvY-678" value="" style="shape=image;verticalLabelPosition=bottom;labelBackgroundColor=default;verticalAlign=top;aspect=fixed;imageAspect=0;image=data:image/jpeg,/9j/4AAQSkZJRgABAQAAAQABAAD/2wCEAAkGBxAQDRINDQ0QDQ0REA8RDw0NERAQDQ4OFRgWFhUSFRUYHSggGRsnHRcVITEtJSkrLjowIx8zPzUvNysuLi0BCgoKDg0OGhAQGi0lHyMtKy0tKy0zLSstKy0tNS0tLzUtLS0vLS0rLS0vLS0uKy0tLS0tLSsrLS0tLS0tKy0tLf/AABEIANgA6QMBEQACEQEDEQH/xAAcAAEAAQUBAQAAAAAAAAAAAAAAAQIDBAUHBgj/xABDEAACAQECBg4JAwMEAwAAAAAAAQIDBBEFEiExUXEGBxMUFTJBUmFygaGx0SIzQlRikZOi4TWysyOCkiXB0vAXQ1P/xAAaAQEAAwEBAQAAAAAAAAAAAAAAAQIDBAUG/8QALxEBAAIBAwIFAgYCAwEAAAAAAAECEQMSMQQTITJBUWFSkQUzNHGx0YHwIkPhFf/aAAwDAQACEQMRAD8A7iAAAAAACxbrVGjRnWqcSnCU5XZ7kr7l0hTUvFKzaeIcewzh60WqblVqSjBv0aMJNUoR5Fdyvpf4MZmZfNa3U6mtObT4e3o1hDnAAAAAAAAAADZWL1a1vxDO3K+FQAAAAAAAABtcDYdq2aaePKdG9Y9KTbWLyuN+ZkxbDs6brdTRtzmvrH9OhcJ0P/rE1zD6Xv6fuyyWoAAAAAGj2bfplo6sP3xK24cnXfp7OQGT5oAAAAAAAAAAAGysXq1rfiGduV8KgAAAAAAAAABcx3pfzC+6fd143fZgAAAAAaPZv+mWjqw/fErbhydd+ns5AZPmgAAAAAAAAAAAbKxerWt+IZ25XwqAAAAAAAAAAFQS7AbvtQAAAAANHs3/AEy0dWH74lbcOTrv09nIDJ80AAAAAAAAAAADZWL1a1vxDO3K+FQAAAAAAAAAAqCXYDd9qAAAAABo9m/6ZaOrD98StuHJ136ezkBk+aAAAAAAAAAAABsrF6ta34hnblfCoAAAAAAAAAAVBLsBu+1AAAAAA0Ozl3YLtD+GH74kW4cvW/kWcc3Z6EZYfObTdnoQwbTdnoQwbTdnoQwbTdnoQwbTdnoQwbTdnoQwbTdnoQwbUxraRhE1XSFQDZWL1a1vxDO3K+FQAAAAAAAAAAqCWXs12a15152ax1JUKFOThKpTd1WrNZJNSzxineldrvy3K1rez3Oq6y82mlJxEPIvClp96tH1qvmVzLi7t/qn7yjhS0e9Wj61XzGZO7f6p+8nClp96tH1qvmMyd2/1T95RwpaPerR9ar5jMndv9U/eThS0+9Wj61XzGZO7f6p+8qKuEK8ouM7RWnF54zq1JRetNjJOpeYxMz92PjPSyFDGelgRjPSwkxnpYQjGelhJjPS/mBGM9LAsV24rHjKSuzq9tXaiYlpSYnwmF+yYRhOPpO6Sz5Hc+klXU0prPgz6dsp3L0u6XkQwmk5Vb8p87ul5EI2S2dhtcNzXpcr5JadRLO1Zyv76hzu6XkFdsm+oc7ul5A2yb6hzu6XkDbJvqHO7peQNsm+oc7ul5A2yb6hzu6XkDbJvqHO7peQNsm+oc7ul5A2yb6hzu6XkDbJvqHO7peQNsqt9Q53c/IJ2y8xJ3tt5W223pZDrlSEAEAAIAAQEgEAAAEEABbr8SXVl4ErV80NVg/jPUTLq1uIbSnmKuWeVQQ2lg9Wtb8SWF+WQSqAAAAAAAAAAFQS1LIbIAAAIABKAAEAAIAEABAFFfiS6svAmFq+aGqwfxnqJl1a3ENpTzFXLPKoIbSwerWt+JLC/LIJVAAAAAAAAAACoJahkNgCAAHusAbAqNsssLTTt0kpK6UNyi3TqLJKD9Lkfdc+UvFMw9HR6KmrSLRZsf8AxXH3+X0V/wAie21/+bH1Od4TsM7PXqWeqrqlKbi9D0SXQ1c1rM58HmXpNLTWfRjBU79WcDoth2rnKlCda1ulVlGLnTVJSVOTV7jfjZbsxftvTr+HZiJtbxWcMbXlGy2apaa2EJYlON9yoxxpSzRgvTzt3ITTEI1Ohrp1m024c+M3mgAC3X4kurLwC1fNDV4P4z1FpdWtxDaU8xVyzyqCG0sHq1rfiSwvyyCVQAAAAAAAAAAqCWoZDZAEBIB6/a22Qb2te96srrPaGo5c1OvmhLU+K/7dBak4l29Dr9u+2eJ/l2M2e25vttYEyQwhTWa6lXu0P1c32vF7Y6DO8erzPxDR41I/aXMzJ5T2O1ngLfNs3zUjfQszUsuadf2I9nG/x0l6RmXd0OjvvuniP5djNntOQbZ2yLfFp3nSlfQs8njtZqlozPsjljrxugxvbM4eN12vvtsjiP5/8eJKOBAC8JW679CXVl4BNfNDWYP4z1FpdWtxDaU8xVyzyqCG0sHq1rfiSwvyyCVQAAAAAAAAAAqCWnZDdAACAIYHbNr7ZDvyxqNSV9poXQq355r2Knak7+lM2pbMPd6TX7tPHmOXoMIWOFejOhVWNTqQlCS5bmrr1oZaYy6b1i1ZrPq4Bb8FVaNrlYnFzrxqqlGKybpKTWI11k4taznmPHD52+nat9nrnDuWxnA0bFY6dmjc5JY1Wa9uq+NL/ZdCRvWMQ9/Q0o0qRWGu2e7Id5WN7nK601r4UdMedU/tTXa4kXtiGXV6/ap4czw4gYPBReBF4SgCitxJdWXgStXmGtwfxnqJl063ENpTzFXLPKoIbSwerWt+JLC/LIJVAAAAAAAAAACoJaZkN0AAIAEDbbFsNysNshaFe6fErQXt0XxlrWRrpSJicS26fWnSvFvT1d7oVozhGpCSnCcVKEo5VKLV6a6LjofQxMTGYam07HqU8I0sIv1lKlOGLdklP2J60nUXbHQV2+OWVtCs6sanrH+/22tetGnCVSpJQhCMpTlLIoxSvbfYWazMRGZcE2VYclbrZO0O9U+JRg/YorN2vK30voOeZzL5/qNadW829PRp7yGKAAEXhK3WfoS6svAlavMNfg/jPUTLo1uIbSnmKuWeVQQ2lg9Wtb8SWF+WQSqAAAAAAAAAAFQS0rIboAEABAADtG1hGusGR3f1bnJ2ZO/HVB6ei/Ga6LuS42pnD3Oh3dqN3+P2etLux5HbQp13gyW4P+mpxlaUr8d0Fo6FLFb6L+S8pfOHH10WnSnb/n9nFbzF4gBF4Si8CALdd+hLqy8CYXpH/KGrsNb0nk5NJeYdmrpZjlsoWnJxe8rhzzo+PKrfPw9/4GEdj5bCx2+6CWJp9r8EcOfU0sW5XuEfg+78DLPt/Jwj8H3fgZO38nCPwfd+Bk7fycI/B934GTt/Jwj8H3fgZO38nCPwfd+Bk7fycI/B934GTt/Jwj8H3fgZO38nCPwfd+Bk7fycI/B934GTt/KrhD4Pu/Aynt/LDZC6AIAAAN9sL2PO32tU5J73p3TtElevQ5IJ6ZNXar3yFqxmXR02h3b4niOXdYQUUoxSjFJJRSuSSzJI3fQPPUtllKWFpYMV2SnkqabQr5Spf43dqkiu7xw546is63b/ANy9DUgpRcZJSi01KLV6aeRpos6HBdmeAHYLZKkk9wn6dnk73fTfst6YvJ8nymFoxLwOp0e1fHp6NDeVYIAXhKLwLdfiS6svAmFqeaP3aexZ3qNJejqcM+GYqxlUEMuz8RdpWeXLq+ZdIZgAAAAAAAAABUEpYVQAAAVUaUpzjTpxc5zlGMILPKUncku0JiJmcQ7xsRwDGw2SNFXOrL06817dV57uhZlq6TesYh9B0+jGlTb6+qrZdhtWGxVLRkdTiUYv2q0uL2LLJ9CYtOITr6vapNvs4LTtVSNVV4ze7KaqKq8st1vxsZ6XflMHgRaYtu9eX0BscwvG2WOnaoXLHj6cF7FVZJx7Hf2XM6InMZfQ6OpGpSLQwtm2x5W+xypxS3xC+dnk8n9RLit6JLJ8nyEWrmFOp0e7THr6OCzi03GScZJtSjJXSjJZGmuRmDwcKbwIvAgJW679CXVl4EwtTzQ1NizvUaS9DU4Z8MxVjKoIZdn4i7Ss8uXV8y6QzAAAAAAAAAACoJGFQCAIvCXStqnY3e+Eq0edCzRfynV8Yr+7oNKV9Xp9Bof9k/4/t001eo4ntlYf31bXSpyvs9mcqcbs06v/ALJ/NYq1X8pjecy8XrNbuXxHEfy8jeUcb3G1Vh/cLU7HUldRtLWJfmjaErl/kvR1qJek4nDv6HW222TxP8uxGz13JNtjY5uVVYRox/pVWo10lkhW5J6pXZenrGV648XlddoYnuR68uembgReBF4FuvxJdWXgTC1PNDVWLO9RpL0NThnwzFWMqghl2fiLtKzy5dXzLpDMAAAAAAAAAAKgkYVU3hKLwKqTjjRdROUMZY8YNRk435UnyO7lCYxnxdIs+2lSpwjTp4NcKcIxjCEa0UoxSuSXoaDXf8PTj8QrEYiqzhPbTlUoVKdCySo1ZwcYVnVUtzbyYyWKsq5Om4ibov8AiGazFa4lzgzeaXhJGbTUotxkmnGUXdKLWVNPkYHS7Nts3U4qrYXOooxU5xqqMZTuyySxcib5DXuPTj8Q8PGq1hLbOo2ihOz1sGylSqRcZLd433PlXoZGs66SJvlFuuraJrNXNX/2/OZvOQACVus/Ql1ZeBMLU80NXYs71Gku/U4Z8MxVjKoIZdn4i7Ss8uXV8y6QzAAAAAAAAAACoJUthCAIvCUXgQACUXgQBASi8CLwASi8CLwLdbiS6svAmF6eaGtsWd6jSXdqcM+GYqxlUEMuz8RdpWeXLq+ZdIZgAAAAAAAAABUEqZK5tPI02mtDBhTeBAEBKLwIvAgJLwIvAgCLwlF4EAAlbrP0JdWXgTC1PNDXWLO9RpLu1OGfDMVYyqCGXZ+Iu0rPLl1fMukMwAAAAAAAAAAqCXuNnWwavC0VLVYqUq9CrJzlSprGq0pyd8ko55Rbyq7NmuyXu9qesPQ6npLRabUjMS8c8E2r3S0fQq+RXEuPtX+mftKOCbV7paPo1fIYk7V/pn7I4JtXulo+jV8hiU9q/wBM/ZHBNq90tH0KvkMSdq/0z9kcE2r3S0fQq+QxJ2r/AEz9luvg+vTi51LPWpwXGnUpVIwjyZW1chiSdO8ek/Zh7rHnR+aCNs+yN1jzo/NDBtn2RusecvmhhO2fZG6x5y+aBtn2N1jzl80MG2fZG6x5y+aGE7Z9kOrHnR+aGDbPswbbbE1iQd9+eSzXaEWrV06OjMTusosWd6i0tb8M+GYqxlUEK41ZJXJ5OwYVmlZnMp3eWnuRGIR2q+xu8tPchiDtV9jd5ae5DEHar7G7y09yGIO1X2N3lp7kMQdqvsbvLT3IYg7VfY3eWnuQxB2q+xu8tPchiDtV9jd5ae5DEHar7G7y09yJxB2q+yrd5ae5DEHar7PqE2e4AAAAAB5PbWjfgG2L4Kf8kCJU1JxWXzVvZ6UVy5N8G9npQyb4N7PShk3wb2elDJvg3s9KGTfBvZ6UMm+Dez0oZN8K4ULuUhE2ZVmjdkREs7MxLIQySEAAAAAAAAAAAAAVBL6lNnsAAAAAAeW20F/odr6lP+SBE8M9byS+dcToM3n5MToBkxOgGTE6AZMToBkxOgGTE6AZFT6AZZFKncukKWnK4QqAAAAAAAAAAAAAAqCX1KbPYAAAAAA8ztlfotq6lP8AkgRbhlr/AJcvn4yeWAAAAAAAAAAAAAAAAAAAAAAAAFQS+pTZ7AAAAAAHmdsr9FtXUp/yQItwy1/y5fPxk8sAAAAAAAAAAAAAAAAAAAAAAAAKgl9Smz2AAAAAAPM7ZK/0a1dSH8kCLcMtf8uXz8ZPLAAAAAAAAAAAAAAAAAAAAAAAAC9uMuZL5MLYl9Qmz1wAAAAAMXCdhhaLPUs1W906tOdOV2dKSuvXSJRaItGJfPmyLYta7DVlCtRlKmm8S004t0KkeR3rivoeXXnMsTDy76VqT4tKQzAAAAAAAAAAAAAAAAAAAAAAPSbFNhlpt9aKdKpRst6dW0Ti4xxOVU7+NJ9F6XL0zEZbaeja8/DuPANk92p/I0w9HbD/2Q==;" vertex="1" parent="1">
          <mxGeometry x="69.5" y="2712.38" width="93.68" height="86.85" as="geometry" />
        </mxCell>
        <mxCell id="NWbSl7yTvhZe52gQgMvY-679" value="" style="shape=image;verticalLabelPosition=bottom;labelBackgroundColor=default;verticalAlign=top;aspect=fixed;imageAspect=0;image=https://upload.wikimedia.org/wikipedia/commons/thumb/e/e1/Microsoft_Office_SharePoint_%282019%E2%80%93present%29.svg/2097px-Microsoft_Office_SharePoint_%282019%E2%80%93present%29.svg.png;" vertex="1" parent="1">
          <mxGeometry x="454.32" y="2827.4300000000003" width="164.5" height="160.7" as="geometry" />
        </mxCell>
        <mxCell id="NWbSl7yTvhZe52gQgMvY-680" value="" style="shape=image;verticalLabelPosition=bottom;labelBackgroundColor=default;verticalAlign=top;aspect=fixed;imageAspect=0;image=https://upload.wikimedia.org/wikipedia/commons/thumb/3/3f/HubSpot_Logo.svg/2560px-HubSpot_Logo.svg.png;" vertex="1" parent="1">
          <mxGeometry x="406.57" y="2715.38" width="286.86" height="83.85" as="geometry" />
        </mxCell>
        <mxCell id="NWbSl7yTvhZe52gQgMvY-681" value="" style="shape=image;verticalLabelPosition=bottom;labelBackgroundColor=default;verticalAlign=top;aspect=fixed;imageAspect=0;image=data:image/png,iVBORw0KGgoAAAANSUhEUgAAAJoAAACfCAYAAAABMsCkAAAAAXNSR0IArs4c6QAAAARnQU1BAACxjwv8YQUAAAAJcEhZcwAADsMAAA7DAcdvqGQAABBUSURBVHhe7Z1bbBTXGcc/e9fYxoCvGDA4hEu5GWMKBXOTmoTQhAApLdA0gjyFVFWUNH1IWlVR1FRpVLXJU5WnNk8tUZOmpCiBVGoDVaVCCjSEcL+aBhtjfMdcbOzdped/9hzneL2zu17vnJ3F308aeebs7O545zffd85czsm6KyCGcZls9ZdhXIVFY6zAojFWYNEYK7BojBVYNMYKLBpjBRaNsQKLxliBRWOswKIxVmDRGCuwaIwVWDTGCiwaYwXP3I8WCoWou7ubent76datW5Sfn69eYZIlGAzSqFGjKDc3N+2/Z9pF6+vro7a2NursvE55+XmUn5cnZWPRhg8OXky3xQEcDASoqLiYSktKKDvbfiJLq2jXr1+npqYm+QOUlZaSz+dTrzCpBgdvS2sr9XT30MSJE6igoEC9Yoe0idbe3iEiWStNmTKFo5dFurq66MqVRqqsnEJjxoxRpe6TlsbAzZs3qaWlmaZOncqSWWbcuHFSssbGRhnlbJEW0ZqbW6iiokJWVBn7IJIVi7paS0uLKnEf66L19PSQ3++jsWPHqhImHYwvK6Nbt2/Llr4NrIt2R4TroqIitcSkk6LCQrpx44ZachfrouF0hs1KKOMM9gNOfdjAumhZYkrHeRxmMDiR22epQWB9j/v9OWqO8QJ5eXlqzl2sixYIBNQc4wXu2dTJjExYNMYKLBpjBRaNsQKLxliBRWOswKIxVmDRGCuwaIwVWDTGCiwaYwUWjbECi5YkdZcuqTkmEaw/BdXW1k6lpSVqKbM4f+ECnThxgo6LCbdAl5SU0PyqKpo/fz5VTpmi1soc8IDxhYsXafasWarEPVi0OPzvyy+lXCdOnpTPoToxYcIEKV21kA7zmQCLlmbwKNpxIRYEa21tVaWJg2dVIRzEQ9TzKixaGsCjZ4hakKvx6lVVOnymT5smUyumsR57VoJFs0SnSIUyLYrpy8uXVal7zJ49uz+94n79dMOiucjt27dlZR7R64Ko3KcLRLhq1ZBI18M6LJoLfPa3d+lUW4BOnT6tSrzBqJwcKVvVxAKat2qtKrUDi5Yighf3U/DMPgqe/Sf5ah6n0Mof9tfDzp47p9ZKD+g5SZ8awd+et5+ku3095Jv1TfLPeoCyKxeqNd2DRRsGwUsHpVgQLNR8XpUS5ax+gUat/rFaIvmENoRD6/KSxZOv8+bO7ZcrR0QzDUQL1v1HLZEUTUo3dw1lV1Sp0tTCog2R0OUjFEDkOvX3AXKZRIpm0t7e3l9va2hoUKWpY+bMmf31sdGjR6vSgUSKZtIv3fzHKHtC6qRg0RIg1HCMAmeFXMc/dpTLJJZoJk3XrvW3RK81N6vSoTP1vvukWGhhFhYWqlJnYolmAun8c1aTr3odZZdNU6XJwaI5ELp6igIiaiUqVyT++WvJv+wp8k1frkpiU19fL6Mcol1HR4cqdaZi0qT+tDh+/HhVGpvA5x9Q38EdIip/rkoSR0pX9Sj5hXRZxUO/BMaiGUCowPE9ScvlhH/pk5SzdGvC9Z+6urr+9IqOBDVlZWX9VwHQ51siBE9/IuUKnvuXKhk+vqmLySdSq7/6McoaN1GVxmbEi+aWXNHIyhtL/tpt5F+0mbLHT1elsTlz9qw8B4fodf/Uqao0NsFLhygg5Aoc+0iVuIdv+rKvpCsoVaWD4YhmEKo/KqULnPiY7nY2qlJ3yCqupJzareSv2UBZhYlFp1iErp6mwOF3KXB0F93t6VKl7pA9eb6oGqwLy1VynyqNDYvmQPDCfiFcONLd7Xa+kyIVZE+ullFOSje6WJXG527nFer775/DcrW7e1kLjQEdubInzVOlicOiJQBOZchIJ6SjkLs9FPlmriL/gg1SOsoZ3LkzolXgyAdSrlDDF6rUHbLGlMnKP1qdvvuXqNLkYNGGgpAs8MVH4Uh3eq8qdA/f3DVSOIgHsTClslIfFX9uWHQRuXyzH1SFw4dFSxKkU1S2g2hIJHBOyuvg1AUiFwSjrNRfeGfRUsDd643hSCekC105rkq9j2/GShG91kvB0CJ2ExYtxYSaLwjpPqSgSK+hljpV6h2ypywQcj0ebjEWTlKl7sOiuQgq65AOke5u1zVVah/ZYqyBXOsou/xrqtQuLJolghcPhCMdpLvz1dl+t5AtRsglKvY2bgOKB4uWBoKn/6HqdLtFBS+FPwlajJBLTDhN4iVYtHQifg6ZWo+JSHdmnyocOrLFuPDb8q9XYdE8AtJpENIhvV46qEqdkS1GyCVSI+XY6b9/OLBoHgQNBx3pQldOqFLVYqwRconUiDpYJsGieZxQa52UDoIN9+bDdGJTNO7kJQmyy6bLu3UzWTLbsGiMFVg0xgosGmMFFo2xAovGWIFFY6zAojFWYNEYK3j2ysB7779PXQ59xi5ZsoQW1tSopTC/f/ttNTeQxzdsGNCnbEtrK+3atUstDQRdF3xvyxY57/R58fDn5FBJcTEViwmfV1pSIrsadeLq1au0e88etZQc+K5JkybJDmQwnyh8CUpw7Ngx+tN776mlgaxYsYI2rFunlohu3b5Nv3z9dbU0kO9u3CjF1Bw9elRKHI1tW7dS1bzwY2sQLVVdvEOABQsWUI2YIsF3JCt1NOaJ7d+yaVNCg/LzJSgBdswYhz5fG+rr1VyYw4cPq7nBRHYZ2nDlipobSHFRUb9kqQad/70rDpq/OkTSVHLq1Cn6444dask7eLqONnfOHDU3kPqGBuro7FRLRMePOz98EimaU19oVVXu9EFmckgcEAc+/VQtJca0adOiTrFAlERK9hK+VwVq3goYCGL06MEP4TrxhUih0UBvPVMmT6a+vj76cPduVToY9Fk7ffp0WXdpamqiT/ZGf/Zz7dq1VCSimubIkSMDZDZZ/dBD9IPt2+nh1av7p28sXiz74giI7bl2zflZhHPnztFKkfp1J3z4DnyXEz996SVavGjRoAnR9+ChQ2qtwSAb4P+OBWpN7R0dVFbq3D9HqvB2RBN1G3Pnm6BLKXDk8/jdPZ0/H+4oxqnn7Qnl5Ql31uIEthOf8f0nnpAixgId/w0XVP4zCc+f3oiVPgEiRDy0YE7rLlyY2gdFEOGc6pcAUSRRkOqjTX/ZuVOtEZ38/MSzhg08L9pikZKi0ax6Y4zs9BjdeN5XWamWwlxWojl1kIy+zVKNUyQGQ4lovxMt0mjTZzHSLUBL10t4XrTJFRU0viz6LdIQB010EzTVZ0U017FOtHUBznGhM71Ug7qhE0792KaKzZs2Del8mg08Lxqorq5WcwOJlgohWrTzQk5ps9Y4x5YqMAperKhV6lLlG1H0qa1bZWPBa2SEaMuXLVNzA4lMhfihZWtURKnIOpJT2kz1aY0zZ87EPV82lFYeGhbxJkSwHz33nGyh4oStF8mYh1N++9Zbcc8NPfjAA/StNWvkPCrL8eoxaP4/8/TTamkgsa4MYCCxSDDE4vWuLgoEYvfVtmL5ctqwfr1ain9l4FcOVzxSAV8ZiMKy2lo15wzOY2m+nkBLsnbpUjU3NCBH5NQmUmU8ySCoKdlIImNEW5pAXQrdr2tmzJih5pxZ4FD3cwNs/3c2blRLI4+MEQ3ECvHRrlM6nYMDc2bPVnOpBSPVFRQUyJZsZWWlFOy5Z5+VkrnRus0UMqaOxqQerqMx9xwsGmMFFo2xAovGWIFFY6zAojFWYNEYK7BojBVYNMYKLBpjBRaNsQKLxliBRWOsYF20vLxcNcd4AXQFYQPronV396g5Jt3gDjHcfm4D66JlZYXvg2LST09PD+WOGqWW3MW6aDniH+u6cUMtMenk5s2brj9jqrEuWm5uLnUMoUsAxh2QNjs6OmncuHGqxF3siyYimt/nS0lHJ0zyNDVdk0+zj7pXUycoLy+n5uYWunXrliphbIJOZtB9WHn5eFXiPmkRDd1eTp5cQZcv18sHbxl7oA9fZJOKiknyiS1bWH8KygQdoaDTOr/fL/ujsFUxHYmgAdYmJMNvPWHCRJEywx0B2iKtomna2ztEZOuk3r4+Ge36evsoP9/7I/h6nWAoRCExIU0WiIO4sKiICi1V/iPxhGia3t5eunOnVzS7b3B0SwE4X4nKPg5eRLJ04inRmHuXtDQGmJEHi8ZYgUVjrMCiMVZg0RgrsGiMFVg0xgqePY+GfmHNToTXr1snx1CKBm47+s2bb6qlcE/WGL0kWX7x2mvypkB8H77XxNyuRYsWySELTdChMzp2BuiKXfeSHfn/RII7KdBtO77TaQjEn738spqLDr7rYfG/e3H4noyJaPsPHFBzg4n1WjLoXrchRyQYplCDoXIiMd8Tb9AvExwsGBDt12+8kfTIdNg2jKoSbbvTTcaIhh3htANOGjs/FWhB8H2IbCbmTsQ2Rd7EWVdXJ/9iqEOnyPTM9u2yW3c9/fyVV2QUxvr4vj++845aMzpY13w/Jnymfv9ehxH80klGiKZ3WLRxAyBDZ2enXCfaOJb44fVAXZHSAIiiX9eY4yhpcQDer2XX6SkyeujloQwyi21Hqn9q2za5jG2KN0ZCJIjCesQUjmhJon/AaD++LnMaMQQ78Q87dsiUEm2szk/27ZOv/Xv/flUSri/pQcMajShqRisto5lKzQgYbdCLeOA9WuChigb0AelFMkI0SIQfETvR3LFAp81VDg0FoEXFkNMm5udFjp+k06cZHU6q90MIHbHM1/U8JE22Qq4FdaomOIH/RY9dGmtkvXSRMXU0LYLe2QCSIG3G27G6tYqUNEAc8X7sIEgcGRGrVMQyU6qOaJAM36fl11Lo14fSCIhERyV8rhPYpr0iEpsTWrq6vhh50HiBjBMNcumdoKWL98MiFer6m5mSnKIZMGWBnNiJui6opdbRR8ur/2pJ3QLfg2qAOWnJcFAN59SOW2SMaNi5iFyQTKfLWKJEYooK8Dk6lUZ7vykUIpVe16x79adX8fqA+tkwIpoexz1W+sNBo0e20xNGuPvJiy8OOu/nFTJGNLBq5Ur5F7LoyAYZEhkEFelOpzq8V8uK92uhIjEjlk6LZortbxAICXU0w2fp9JcMiaRfbBeiljnhYEnkd0gXGSWauWP1SVqnqwWRYOdrSZA+E4mGen3UibRIZkQzW6e6RTucIabf37lTpmeQSJTOJDJKNLOu1V8fMiJMPHTLFKLGSpsaUypEQkgVGTV05NFpM5HtQZrV5+4wHRHi4/IU/gLIan73vUBGiQZMMXCtcShpKjJNYofGe78ZoaJJZAqBz3JKwya79+zpH4QfEyKZPnBwIG3ZvFnO30v4XhWoeU+BCNHc0iIjCHbw2LFjZXmJWL5cXy/LUWczIwwiBZ72QZQxx+40weCt586fl/OPPvKIHBo7Fli/W2wLvqe2tnZQRDO3p2bBAse6lfn/RJvwPlTkUd9yemIJMup1nf4/r5I10p6CQjRB/Q7RB9cYGTtkXOpMBl1/Mq8hJtqIYFLDiIhoSDnmvWCo1L/w/PNDqt8xw2NEiIa620ciZQLUcTaIuhBLZpcRV0dj0sOIqKMx6YdFY6zAojFWYNEYK7BojBVYNMYKLBpjBRaNsQKLxliBRWOswKIxVmDRGCuwaIwVWDTGAkT/B0G1W9ykJLfcAAAAAElFTkSuQmCC;" vertex="1" parent="1">
          <mxGeometry x="700" y="3043.64" width="158.42" height="163.56" as="geometry" />
        </mxCell>
      </root>
    </mxGraphModel>
  </diagram>
  <diagram id="cn_Ttj--G7Rrlg2BnOOj" name="Sources">
    <mxGraphModel dx="1730" dy="-1440" grid="0" gridSize="10" guides="1" tooltips="1" connect="1" arrows="1" fold="1" page="1" pageScale="1" pageWidth="827" pageHeight="1169" background="#ffffff" math="0" shadow="0">
      <root>
        <mxCell id="0" />
        <mxCell id="1" parent="0" />
        <mxCell id="qId7yM4YRkhpdb17ku_7-1" value="" style="sketch=0;aspect=fixed;html=1;points=[];align=center;image;fontSize=12;image=img/lib/mscae/SAP_HANA_on_Azure.svg;" vertex="1" parent="1">
          <mxGeometry x="80" y="2496" width="240" height="120" as="geometry" />
        </mxCell>
        <mxCell id="qId7yM4YRkhpdb17ku_7-2" value="" style="shape=image;verticalLabelPosition=bottom;labelBackgroundColor=default;verticalAlign=top;aspect=fixed;imageAspect=0;image=https://upload.wikimedia.org/wikipedia/commons/thumb/f/f9/Salesforce.com_logo.svg/2560px-Salesforce.com_logo.svg.png;" vertex="1" parent="1">
          <mxGeometry x="520" y="2465" width="260" height="182" as="geometry" />
        </mxCell>
        <mxCell id="qId7yM4YRkhpdb17ku_7-3" value="" style="shape=image;verticalLabelPosition=bottom;labelBackgroundColor=default;verticalAlign=top;aspect=fixed;imageAspect=0;image=data:image/png,iVBORw0KGgoAAAANSUhEUgAAAXEAAACICAMAAAAmsyvzAAAA0lBMVEX///8RTaxa4gMARKkAQqgAPqcAQKgASKoARqoISqvZ4vE2YLMAO6afr9YAP6ebsNhQd74gV7HE0unq7vZP4QDM1uuYqtR9lMgAOaatv9+DnM6qt9nh6fWms9hffsD4+v3o+uHw/Oi4x+Pv9PqS62Sn7o6NpNIANKTT2escVbBsicVLcbvAzeb5/vVIbLj0/e+b7HXg+dUAKqI1ZLZnhcN15jiA6EfG9LBm5BzZ+Mqi7YC68qCI6VrC86sALKKD6FW18Zh450DQ9r3c+MyW624AHZ8RsVF1AAAWXUlEQVR4nO1d/WOaOheWkoSA1C+qoCJ00KmodVt1W/e9u3vv//8vvQRICJ8SW73dXp9fWvkIyZOTk5Pk5KTVKoOxud7v+oEUot9em7OBW/oYD9+bDg8+dEEplmZgIVlRpQQqBhD0ukbtS1MZAr2tnSmLfxLc6c7CjOwUCgLOplrSNxZ5R5H8M2b1z8C4jZQi3TEw3E2r3uvHlQTMc2b2D4C9RSXizQv6tlxv2Ek1Kbsz5/g3x1SvlG+m0+Gk7E0teVFtnzvPvzVW+iG+CVBZ93hh/Ai4e1QQ6AiFq8ArvHxh/AisMoSruKPLQbvd7gdYR1njRQXj/MsXxsVh8oQremBubMN3Xdf3DW1s9nXMcw7zlF8YF0YXcjJsOcO85T1cZTiHOcVyYVwUywXXNW6XZY8YJuI4R9kR/YVxQbhSOqQHo6qnjF6qeVQpM+i/MC6ICaBM4qBuOmoks5rBW/7GhXExaExdKLv6+aqhxMZInS6fwoVxIawo46pkH3jUDpiUy9yzF8aFoMnMBDk8w20zowbvuSQujIvApIyj7uGHW0NG+SId7l8YF4GbzLRKatDo+REqCvmFcRFsqNDmhzUVcHe094Ssm70wLoJJ0m+q/YYvbKgtCZgWujAugl2iVOTSme8y9Ci/bP3hwrgI6Ky4Xjq4L8OGaXLad14YF4CmU6Vy2EOCgva1iK57XhgXgJcIrOI0f4eqfmat/K6Mv7n98vmf97fk31cf7j5/effmDB8dJ/0gXjV/Z4Byivy3ZPz229fHG4Jb8uvVFfn36seX21N/d0oZb9xxtlo+oBZ8Yh/+hoz/+nF1cxWBMp78uvrw8bRfniXsyU0GnBRMkSdd52/H+LfHhO4C4+TC489TfvtazhvXDUDtQziIf/9mjH+8SvkuYZwI+pfTff0oxs2k60TJgmdzxo3BdG6uVvuVOelujObmUQauNh5NwlTMycjThNN4957nu5RxIuefhHNlb7pxrubjZY074FGMz3MvNWPc35g7CIGMYwCot1ez+gn5ItzBZI11BJI0kK725ksB1u8/Z/muYDy8/I+I4aLNnUDvyHHZZATR1vQqWL8GT2BcFmB8afZh3odUxUhxNgIf1kgiOc8xRYa7+aGJfYrbvwqEM1slf+PxXcNEje4WAkXNFa0TrAZlTx8l49QgB7P492HGNz1Q5rJLCIO7gv9LBYaOLJcmogJl1ciT+lee7ZsPn3/ekzv3Xz7/IOZh5nYjbW5MJFDqPhjK065EnI5ifC+ox7VdtcsucSBtN5m2NHoIVyeC0eqwbvmSYfTm6vOv+8z9v18/Zp/4fDhbc1QuBUnR1oXWdxTjdPaLLhrVM+6a1gEXUtXqHdTnI72G75jzQ20lo8JvPpT2je++8oJ+c3cgSbtdcB7Mca7nnSOOYpyWna511jKutUFpXnJ01atzowcPJ6LXizlP+M2Hv6seu73jn/unNlvTGvmmgDlpOoZxTWTMOZYP+khHr8J5zReX0gEBTwrRrulBOZVy8/irrnx/c91rnWJxVw3EIJQmKbN+fAzj9B2FOq3UMD6CBfsEoBChkZi7gapndjaFXldViBmm5C8rUmUH+olj8e191VMJfnIP/6x6yF8X3ZFLc6XKvL47hvFtQjCmm1CqGZ9kpEAFOlhPrseeN56NVn0LZPIG9vm3E3gg59wLrcBZTSarnmR1su1axRXT/G84TdFg4uQT93iFkej3s+0OI0tdr8y56fR1mLNe+EX7IxhfUr0Mqe6tZHzEE67A/igjgsb1DvK5rpDyQYZwHKaS7nb0N/Ogw6ehquWK5a+DDGbxirNaSluEmyFcQarpMX3tDnMl492Rj2CceRQx58MqxmeQz1OvxB1G2/PSUKrLbV6lYFw0vJeOzJVOCcrMnteMv8fbZqW8Z5MB5b3nlv8mWBcGO7aJec51ZhmIM86c5jBbxKhgfMgZKWBXOgAL+eK1oVV8yG2nVaKCfakEL3vcljHcKz5wmwps04Fk68171ipK7Eje4R5tS8tmr7jhsapSQRBnnA5/JMTGLeWM+ylXKphUG26zVBWrQWEyYpVWGw4qTcixmhauU2wpX29qyKvCLaul98Xvpa1XlSvdkbV2KuZsH6Aw4x79liqlKZcyzpy9wv6s1tpect6MeVXuWWkzWdfMyGm7tHAw33syO6XZuJ3iF3st39caqT2iSDW+gy7XgKkgiDJus29x/W8p46m/nCofmPSwAyahIMsW59qO6ldi3VSxKvkO/Adl7keDEnJ4Syl/n+s8065M6dePls10B6EcPynIOPOZC99Ir5Yy3mZPwoOzTAaTciWrhVPXdnBw6TulHGY3V//NZFV05bjCoFyyhnd4Y/yESXnS7wkynpaqM0uvljGearoGLrupxZlVCQYTELw+mIbP6jjnQvkPXdH8djgjWTB19CFzeU2bZJUtyiPtiOL2K8S432OqWeE3SZQxzhoDquxYeKQOpLwmn9PcqqU2Xw4a002ZSS02+HlskpEsmD7iTZwlEybQYHLfpfN+ibeJCON87yTzoljCOHMgzVRNDVIBTa0anykb1MgNdUarLaPe6IRKk7FmHu/ou/z0ikNpAI0cIFIH/ag/E2B8pqQWGMw8XsJ4mquGgW42tIuBqdwwuwg39F/aqiVfpXL6eGg2pQwfaANJLxlMNvrNoptMKOWAmCuNGR/uuPGMnGWgyDjLVVOu0kl3znOGVZvVcFVtwHRTGnfkvkxMG+PjTUGtTOlHUGX0kyxcZlDv3JTxen8Vd7PjA1Mou+x4psj4mObqkGGYopufkWwZVDZw1RxXAXSSjRM/xtlt00R4MM+hn+zSmm5xaOyqyboja5kyXu0F5/pjU4X8XJiSHxkWGacD06ZaPIRN1YpMr3id5Epzv1+PyR+raboQkbepG+Iub60wS7Z662sePhVy8gpdyw+b/6QEpum0QW59EQf5Nl5g3KX9IGjY8FpcN2nR+hTeTBCCqUzWZh8TIX3bPBEe36iBSC8MqRygpg4EoXqkIX+cVMbDX7gUhfl1UNz0WWBcy6/LNYBLuz2diic1e+W65aEcaONK2yxVKrXLPtV4l1dKVEWoAgGTmJLFPOMNAfdF7VVgfADFpZMJAvWta7FPVkw71pVNWSfZfEVltPGkYRZvHnM1Rkf4InJgULViGaKMK7Cshy0w3j3CR7rAuE/H0kjA54rtQKB9zaebGFfH+oY/JglQa562vE6znWoRmJYNx99CjKsl7hdRMfOMU8dEMCt7vAJ5xulUmNoW8S1kW/cS3ffp612EI9V4q/U6fv9rwrhPB9N6c4WZli0cDAswrqJ+hUdIgXHa8poNFXO5ooxvki5KZPtGOrtgiXo0NkTawYu8xbzYps0Zx7A9rZK1AuO0/+oIaOAC49TSE1JNbCClnyjAKBvbyYefTcF8Y2eNGFcVAOVVTUjPAuOMPJFYtnnGaSeIheJW9tQjPi0Ag5nKIm+N6MaIEcc4BiVAqKNbUm9UHyu4mvGnyPiRjB9T2QI4jvEuxzgbAa2mZfA2DXziq7XKU/T4n8R4iYyLFSuH6p6zqaMywWkYf/c6xk+RRHh8SRJI1qSfjXGhnVd5FBinXXPzreetUzH+3Pb4szEu5FubR4FxuoNOKfEdqcRpGL994pjzno45n1vGn5fxAZsRFkjlRHr8JsuYKPLzKi+UcTaTBRrPs56M8WeeO3yhjLOhsMh0z4kYf+L8+Nfc/PgLZTyNwSKwp/ZEjJesmwmgsAb0UhmnX5AO7DbhcSLG3zzvOudLZXxJh7LKYc8eilONgOhy/POs5b9UxluCniYEp2L8Kf4qfxcayItlnE6WCax4n4rx5/XJerGMs3UmSW7o+pCukzz3vArzOxSOKFHid/hiGU+9eyTYzMtgStfIn53x431rH+mLqY/oy2VcSx2nrSZrb7O0hp597pDphq8iKXF7brlO9+Uyzgm5VLocnYHhpNs8np/xJ++R4NygXzDjNr836UCYghG/J/kE8+NUyIVmV9KQK/w+oBfMeGZvIZaqR0LuLMjs2DwB49xet9umCdFJw1w1vWTGWw63hqpavdKVO3c4QbnT5E6xBsTt53zVLJ17tjk/u5/zRTPucx7+JO5Fe56NH+Xa41WQ3dt7KsZbbHNmwy20b9JoWtmx6otmvGWn505Et2XY38+95XI58Majyb6NUFlgoZMw/irVK1cNPBDfpZvEczNgL5vxkPJC5AkZQQg7iMQWq4hNcpqV5V8p5TevDyXyJa2evHnzwhlvGc0Co5yB8Ux8lfe1M7evPtTEV3npjLdcp/6UVYb0qVN5T3BBU65u7m6rEnjzln+usHL0dMaPib6XR23Upq7aQMwV0Gcq/2T+KhnKb+4+lc3evnt7U0t4ulXmWMZppGAk4gWbh50IaPkeFHt/KKiYAncbt0tHTHQPCt2gKOSCwZyTyvwOM7Hgbm7ef86Gv75/9/qvTAC+MoVPPT1FHPbT3Vpg1homTtqF6AFCSHJRJY1DB9aE8MJ6HPFwnXAFE7ud7p7RRWJQUmlSS7dvf+T5JKQ/fv38LRb1j5/vHhvFO0xmL5DACm6oBRKa9QEtp9x8qaYM85gcq9KfVZu0rbI4jKHBiGjoSy2uFZ0VZR5NhgERn5ewRcWplB8I3brNBjS8SmN63hRuXJXPCNhRqDUscCZBi8VpwETtGruOguHuiSfdmxZWZL12uceeORhGVqGiKooSmokIddpzTt2Odaxgi/NdNnUA9LoYH2UYqEjBeuWk/NsCs7fkcjFu7deqRbplAJFevnWhGsYOYtxJYtV1e3sR98ByDM3e/LCPvDbwricrZ71e91bzccGJdLlam5lmsrweifiKxvBHjlmjiBrGZq4bJg29I5zTx/t9841/fxi+ZVRLafzxn8c5t1xQgfsv71O1XRJj//U5TvD4P8P9rzsaiTl3jsTN148X+T4N7j++vSqclXL37UL3SfHq42t6HtBfd68/3v63ubngggsuuOCCCy644IILLrjgggv+TLhGbinGPfKox/97uEYEvyZcTbTeMX3IRjJdPjxEy5NLwdWnVss3hstjT+ZsjI1wts6GGVIJ+u1et3w90VssyFLkGGVDbWswcgiZL4QCdJEjRCTdsuD2tAtQkwU+UZisp2MG1JABy9IRKoTqjDBaLMgqaAXjK30hFDlmLCM92LV10HFOIOb+rBtncg2+nyhM1tMRMm67rmsPVkApdQhwR9HGqQrGjZGQsI4hbpPX/BWsPOHqCdD0RbwQvezVnM3yHyNkPGl/I7kuxlIF42IwJFarEyDm+NMIGhYKE/XfIGXcUOQaBz+Ocdf3yxn3M/2vX+yNJ4C95KtpUL0oQR5u9lU3m1T1T1sp7pB23Xw+3NzrZ7a6UsZ9NWJ8uF7HKtB31kSBL9eRMwxjXFtJluwME8a9dY+wte+NWtc7GfRNyp23BVZg+pu1k7Lp9rnzNxwrOWxlvJUW8i5xNPXWjrt0VKj24hZg9szwAQyDFa1vY9KHet+kHaNt9uFC2pMsO85aVbcOye6YftYf7WRL7SX1MAlT89YKlxr5uLp9uruOAFLGlzK6bpEjj6zYBdEIdPJ7aEW+bZTxjQygrC7gSokYn+mQFK2P9quFpeoYbWOBMXVZV8GibyLuyA1b58KtDLpR/+D3dAj6AMJt9NxUl+ZogQHCsdLpoa0ZJgzDyozTGQYdPZAgSI6F9DCCQaADch6jtdAlqbP4N7xzrcef1cLaUYgLVdyeHLSbLxYKBHJsJfg9CJU+QnD7RJc0ETDG/S2OLCoPJk6fRj+qgSFEHOMGVCTP97W9HrsLz5BMMttWJX1i+7aD46N4riFea76/6csqd0KR1yk2ekfWu4brX6PY83GKJLgd+v5MicM69xTJMm3fWIHYs9JWcXvpupvE70+DeBf+XO4wsluGP1TQ2DeibEWf9QMc5ta1TRS7Ie6xpO/D1EwAIgUaXu/6LvkpFDb0aQgZvx6Px9OVhGP/33rGV3JyAOYeZxkHccvsR+fY+YESh8H2Ac/4FBR0/xh2uvQf4k89RUkwsxGIstNTkkj2axzFC97L0fdag06HVO0Ox6cXGEFk+ti050wYD6mMc7uSo1Og9hjEjczB5MQgtx0T39rrZzTfZ0Dq6CGAIsW6rZ5xmR7pkOhxyjhV0CZoR2lQm8GUOca7coHxHqZu2H1MDqeYoiRG/BJEsXB6OIlgPgLk1BpDpqdlbOWwZmxIf84t3OJslYRxQG0BQ4n66X1SQWFOFq2onuLqXE4mZ2W854TYBsCKpK2W8SGgeiHPeOJyPAeSS45joSHDs4wXZNyH7DCGmOspSpScFh8NzhgfIyuqEOpcPkJtP2wYStIF+sNBq8A4KwoRaiIJe5wE1p6CaKi8xqpImNfnQahV4mo3VrJFslvL+AbR4G61jMeSTpBhfIzyjGs60+wDSHajpIzLZYzPZWkVY01OPh2B7BkiOcZDFUVtkjBfdiTjMePdmHFNAvqOOzv2LEhtlZA20sJrGfcgTkbPtYw7MtUVGcY9lI8cPEyl0NY7m4OMmziek7AsHSpGmHqQsaVzjF8j9vExKmM8tC1lS9dj4/Jc4Bg3Zck+KOPyE2Tctrj9XfZgQxLv0JHnsomMh8mNPQo3/FqtjF+npum0nPHooOa2LstnHKpyjE8REWCvU6vHqV44oMdxkmaGcTfgTsDaWzAsr87OPRgjQsK4nvGRzJ1RSb6uZKcesoyHWozeXsmE6xLGCZaBIp2z52SMrzAhdUmH734J4z6gm6tqGQ9rLamYDOPhL1bQkP09OdePnYrsyGFXeEjGBzBj0S87IPk5nBOzL8e4bbERV1zXOcY38+T2ptP8jKcnI2Vck6PNgSybngyK1mEPJ0bkBNcwbrDjpfuZM1o1zIb5cwAJOSOkx3Wj6dFBgAcYd/tKorndEfnbx8l+xp61jdJHGeuwh5PUZiA6ny/H+HSRTDUPzsz4kiwC2bNAiU8NDNQgzIfvSWoJ40sLk3kLv4ukGsZbE9SZE+adzJgzLCmUnWjoOkfxIb5+OzbQhgGOdO4BxltTGH2/pe0WpLF5Fl6F3/cnIDqF3AiS6bGEcQ3hbZh5d4rlKH85xsMhaZ8wbazxWbWKFBDgDrDi0YS3UJTtum9JUgnjrYmF1fDuYlvLuL8FoL/eSlY7dw7xxJLD17cS0ntx2TVVBtv9VgZqJG6HGG/NdSxtnS2G/SQ7oO84QSceS4SqCW93GmO8NdZldb1vA2K8t4p6PDQE5K2zVmnRz4Lr77G1tQjYLrOprOvWwtHaD2R0Mnx4IHIwfVgkO+N0cneuLaJ1zu7376Qs0iJp3ZPv8RDFdxZQt/BmIufOsNz0LZJAwIpoOwti8O3j1GcPyakyy8UDeWS7UJJMff83TsiTLLJsZyZm4VgimW8nFo8R6PpDWI7RQzJsH7bJ0yhZn+h9lxLGvz9EpdXWUdl759MpbGU5I4ju0BuEF4xo+T58gOQyncN2B97GJ3fd+C65xhLwWUq25w3JPEjuYMnwxsbLrvsaG2/AEqfvJ581uN/0eS1MmUtU8zacOT3wSKiiNBtRPujTfjE1fxCV9fcHLWOAxXYcX3AklsmEcxc9KcLCBY3hWP2pZmsTjAtK5YKTwFhbuiwhBNt/hI78LTAw22q/d9YFxN8D/wPEAv20H5W/CAAAAABJRU5ErkJggg==;" vertex="1" parent="1">
          <mxGeometry x="80" y="2680" width="282" height="103.93" as="geometry" />
        </mxCell>
        <mxCell id="qId7yM4YRkhpdb17ku_7-4" value="" style="shape=image;verticalLabelPosition=bottom;labelBackgroundColor=default;verticalAlign=top;aspect=fixed;imageAspect=0;image=https://www.nanogrid.com/wp-content/uploads/2019/04/nanoGrid-for-nature-white.png;" vertex="1" parent="1">
          <mxGeometry x="450" y="2695.7" width="370" height="88.23" as="geometry" />
        </mxCell>
        <mxCell id="qId7yM4YRkhpdb17ku_7-5" value="" style="shape=image;verticalLabelPosition=bottom;labelBackgroundColor=default;verticalAlign=top;aspect=fixed;imageAspect=0;image=https://www.greenpowermonitor.com/wp-content/uploads/2021/02/2021_GreenPowerMonitor_PNG_Web.png;" vertex="1" parent="1">
          <mxGeometry x="450" y="2850" width="350" height="60" as="geometry" />
        </mxCell>
        <mxCell id="3wVyccbCmQw4aud2F6vz-1" value="Data Sources" style="text;html=1;align=center;verticalAlign=middle;resizable=0;points=[];autosize=1;strokeColor=none;fillColor=none;fontSize=33;fontStyle=1" vertex="1" parent="1">
          <mxGeometry x="305" y="2377" width="221" height="44" as="geometry" />
        </mxCell>
        <mxCell id="2naHa-5fWXP_iD7rIHbV-1" value="" style="shape=image;verticalLabelPosition=bottom;labelBackgroundColor=default;verticalAlign=top;aspect=fixed;imageAspect=0;image=data:image/jpeg,/9j/4AAQSkZJRgABAQAAAQABAAD/2wCEAAkGBxAQDRINDQ0QDQ0REA8RDw0NERAQDQ4OFRgWFhUSFRUYHSggGRsnHRcVITEtJSkrLjowIx8zPzUvNysuLi0BCgoKDg0OGhAQGi0lHyMtKy0tKy0zLSstKy0tNS0tLzUtLS0vLS0rLS0vLS0uKy0tLS0tLSsrLS0tLS0tKy0tLf/AABEIANgA6QMBEQACEQEDEQH/xAAcAAEAAQUBAQAAAAAAAAAAAAAAAQIDBAUHBgj/xABDEAACAQECBg4JAwMEAwAAAAAAAQIDBBEFEiExUXEGBxMUFTJBUmFygaGx0SIzQlRikZOi4TWysyOCkiXB0vAXQ1P/xAAaAQEAAwEBAQAAAAAAAAAAAAAAAQIDBAUG/8QALxEBAAIBAwIFAgYCAwEAAAAAAAECEQMSMQQTITJBUWFSkQUzNHGx0YHwIkPhFf/aAAwDAQACEQMRAD8A7iAAAAAACxbrVGjRnWqcSnCU5XZ7kr7l0hTUvFKzaeIcewzh60WqblVqSjBv0aMJNUoR5Fdyvpf4MZmZfNa3U6mtObT4e3o1hDnAAAAAAAAAADZWL1a1vxDO3K+FQAAAAAAAABtcDYdq2aaePKdG9Y9KTbWLyuN+ZkxbDs6brdTRtzmvrH9OhcJ0P/rE1zD6Xv6fuyyWoAAAAAGj2bfplo6sP3xK24cnXfp7OQGT5oAAAAAAAAAAAGysXq1rfiGduV8KgAAAAAAAAABcx3pfzC+6fd143fZgAAAAAaPZv+mWjqw/fErbhydd+ns5AZPmgAAAAAAAAAAAbKxerWt+IZ25XwqAAAAAAAAAAFQS7AbvtQAAAAANHs3/AEy0dWH74lbcOTrv09nIDJ80AAAAAAAAAAADZWL1a1vxDO3K+FQAAAAAAAAAAqCXYDd9qAAAAABo9m/6ZaOrD98StuHJ136ezkBk+aAAAAAAAAAAABsrF6ta34hnblfCoAAAAAAAAAAVBLsBu+1AAAAAA0Ozl3YLtD+GH74kW4cvW/kWcc3Z6EZYfObTdnoQwbTdnoQwbTdnoQwbTdnoQwbTdnoQwbTdnoQwbTdnoQwbUxraRhE1XSFQDZWL1a1vxDO3K+FQAAAAAAAAAAqCWXs12a15152ax1JUKFOThKpTd1WrNZJNSzxineldrvy3K1rez3Oq6y82mlJxEPIvClp96tH1qvmVzLi7t/qn7yjhS0e9Wj61XzGZO7f6p+8nClp96tH1qvmMyd2/1T95RwpaPerR9ar5jMndv9U/eThS0+9Wj61XzGZO7f6p+8qKuEK8ouM7RWnF54zq1JRetNjJOpeYxMz92PjPSyFDGelgRjPSwkxnpYQjGelhJjPS/mBGM9LAsV24rHjKSuzq9tXaiYlpSYnwmF+yYRhOPpO6Sz5Hc+klXU0prPgz6dsp3L0u6XkQwmk5Vb8p87ul5EI2S2dhtcNzXpcr5JadRLO1Zyv76hzu6XkFdsm+oc7ul5A2yb6hzu6XkDbJvqHO7peQNsm+oc7ul5A2yb6hzu6XkDbJvqHO7peQNsm+oc7ul5A2yb6hzu6XkDbJvqHO7peQNsqt9Q53c/IJ2y8xJ3tt5W223pZDrlSEAEAAIAAQEgEAAAEEABbr8SXVl4ErV80NVg/jPUTLq1uIbSnmKuWeVQQ2lg9Wtb8SWF+WQSqAAAAAAAAAAFQS1LIbIAAAIABKAAEAAIAEABAFFfiS6svAmFq+aGqwfxnqJl1a3ENpTzFXLPKoIbSwerWt+JLC/LIJVAAAAAAAAAACoJahkNgCAAHusAbAqNsssLTTt0kpK6UNyi3TqLJKD9Lkfdc+UvFMw9HR6KmrSLRZsf8AxXH3+X0V/wAie21/+bH1Od4TsM7PXqWeqrqlKbi9D0SXQ1c1rM58HmXpNLTWfRjBU79WcDoth2rnKlCda1ulVlGLnTVJSVOTV7jfjZbsxftvTr+HZiJtbxWcMbXlGy2apaa2EJYlON9yoxxpSzRgvTzt3ITTEI1Ohrp1m024c+M3mgAC3X4kurLwC1fNDV4P4z1FpdWtxDaU8xVyzyqCG0sHq1rfiSwvyyCVQAAAAAAAAAAqCWoZDZAEBIB6/a22Qb2te96srrPaGo5c1OvmhLU+K/7dBak4l29Dr9u+2eJ/l2M2e25vttYEyQwhTWa6lXu0P1c32vF7Y6DO8erzPxDR41I/aXMzJ5T2O1ngLfNs3zUjfQszUsuadf2I9nG/x0l6RmXd0OjvvuniP5djNntOQbZ2yLfFp3nSlfQs8njtZqlozPsjljrxugxvbM4eN12vvtsjiP5/8eJKOBAC8JW679CXVl4BNfNDWYP4z1FpdWtxDaU8xVyzyqCG0sHq1rfiSwvyyCVQAAAAAAAAAAqCWnZDdAACAIYHbNr7ZDvyxqNSV9poXQq355r2Knak7+lM2pbMPd6TX7tPHmOXoMIWOFejOhVWNTqQlCS5bmrr1oZaYy6b1i1ZrPq4Bb8FVaNrlYnFzrxqqlGKybpKTWI11k4taznmPHD52+nat9nrnDuWxnA0bFY6dmjc5JY1Wa9uq+NL/ZdCRvWMQ9/Q0o0qRWGu2e7Id5WN7nK601r4UdMedU/tTXa4kXtiGXV6/ap4czw4gYPBReBF4SgCitxJdWXgStXmGtwfxnqJl063ENpTzFXLPKoIbSwerWt+JLC/LIJVAAAAAAAAAACoJaZkN0AAIAEDbbFsNysNshaFe6fErQXt0XxlrWRrpSJicS26fWnSvFvT1d7oVozhGpCSnCcVKEo5VKLV6a6LjofQxMTGYam07HqU8I0sIv1lKlOGLdklP2J60nUXbHQV2+OWVtCs6sanrH+/22tetGnCVSpJQhCMpTlLIoxSvbfYWazMRGZcE2VYclbrZO0O9U+JRg/YorN2vK30voOeZzL5/qNadW829PRp7yGKAAEXhK3WfoS6svAlavMNfg/jPUTLo1uIbSnmKuWeVQQ2lg9Wtb8SWF+WQSqAAAAAAAAAAFQS0rIboAEABAADtG1hGusGR3f1bnJ2ZO/HVB6ei/Ga6LuS42pnD3Oh3dqN3+P2etLux5HbQp13gyW4P+mpxlaUr8d0Fo6FLFb6L+S8pfOHH10WnSnb/n9nFbzF4gBF4Si8CALdd+hLqy8CYXpH/KGrsNb0nk5NJeYdmrpZjlsoWnJxe8rhzzo+PKrfPw9/4GEdj5bCx2+6CWJp9r8EcOfU0sW5XuEfg+78DLPt/Jwj8H3fgZO38nCPwfd+Bk7fycI/B934GTt/Jwj8H3fgZO38nCPwfd+Bk7fycI/B934GTt/Jwj8H3fgZO38nCPwfd+Bk7fycI/B934GTt/KrhD4Pu/Aynt/LDZC6AIAAAN9sL2PO32tU5J73p3TtElevQ5IJ6ZNXar3yFqxmXR02h3b4niOXdYQUUoxSjFJJRSuSSzJI3fQPPUtllKWFpYMV2SnkqabQr5Spf43dqkiu7xw546is63b/ANy9DUgpRcZJSi01KLV6aeRpos6HBdmeAHYLZKkk9wn6dnk73fTfst6YvJ8nymFoxLwOp0e1fHp6NDeVYIAXhKLwLdfiS6svAmFqeaP3aexZ3qNJejqcM+GYqxlUEMuz8RdpWeXLq+ZdIZgAAAAAAAAABUEpYVQAAAVUaUpzjTpxc5zlGMILPKUncku0JiJmcQ7xsRwDGw2SNFXOrL06817dV57uhZlq6TesYh9B0+jGlTb6+qrZdhtWGxVLRkdTiUYv2q0uL2LLJ9CYtOITr6vapNvs4LTtVSNVV4ze7KaqKq8st1vxsZ6XflMHgRaYtu9eX0BscwvG2WOnaoXLHj6cF7FVZJx7Hf2XM6InMZfQ6OpGpSLQwtm2x5W+xypxS3xC+dnk8n9RLit6JLJ8nyEWrmFOp0e7THr6OCzi03GScZJtSjJXSjJZGmuRmDwcKbwIvAgJW679CXVl4EwtTzQ1NizvUaS9DU4Z8MxVjKoIZdn4i7Ss8uXV8y6QzAAAAAAAAAACoJGFQCAIvCXStqnY3e+Eq0edCzRfynV8Yr+7oNKV9Xp9Bof9k/4/t001eo4ntlYf31bXSpyvs9mcqcbs06v/ALJ/NYq1X8pjecy8XrNbuXxHEfy8jeUcb3G1Vh/cLU7HUldRtLWJfmjaErl/kvR1qJek4nDv6HW222TxP8uxGz13JNtjY5uVVYRox/pVWo10lkhW5J6pXZenrGV648XlddoYnuR68uembgReBF4FuvxJdWXgTC1PNDVWLO9RpL0NThnwzFWMqghl2fiLtKzy5dXzLpDMAAAAAAAAAAKgkYVU3hKLwKqTjjRdROUMZY8YNRk435UnyO7lCYxnxdIs+2lSpwjTp4NcKcIxjCEa0UoxSuSXoaDXf8PTj8QrEYiqzhPbTlUoVKdCySo1ZwcYVnVUtzbyYyWKsq5Om4ibov8AiGazFa4lzgzeaXhJGbTUotxkmnGUXdKLWVNPkYHS7Nts3U4qrYXOooxU5xqqMZTuyySxcib5DXuPTj8Q8PGq1hLbOo2ihOz1sGylSqRcZLd433PlXoZGs66SJvlFuuraJrNXNX/2/OZvOQACVus/Ql1ZeBMLU80NXYs71Gku/U4Z8MxVjKoIZdn4i7Ss8uXV8y6QzAAAAAAAAAACoJUthCAIvCUXgQACUXgQBASi8CLwASi8CLwLdbiS6svAmF6eaGtsWd6jSXdqcM+GYqxlUEMuz8RdpWeXLq+ZdIZgAAAAAAAAABUEqZK5tPI02mtDBhTeBAEBKLwIvAgJLwIvAgCLwlF4EAAlbrP0JdWXgTC1PNDXWLO9RpLu1OGfDMVYyqCGXZ+Iu0rPLl1fMukMwAAAAAAAAAAqCXuNnWwavC0VLVYqUq9CrJzlSprGq0pyd8ko55Rbyq7NmuyXu9qesPQ6npLRabUjMS8c8E2r3S0fQq+RXEuPtX+mftKOCbV7paPo1fIYk7V/pn7I4JtXulo+jV8hiU9q/wBM/ZHBNq90tH0KvkMSdq/0z9kcE2r3S0fQq+QxJ2r/AEz9luvg+vTi51LPWpwXGnUpVIwjyZW1chiSdO8ek/Zh7rHnR+aCNs+yN1jzo/NDBtn2RusecvmhhO2fZG6x5y+aBtn2N1jzl80MG2fZG6x5y+aGE7Z9kOrHnR+aGDbPswbbbE1iQd9+eSzXaEWrV06OjMTusosWd6i0tb8M+GYqxlUEK41ZJXJ5OwYVmlZnMp3eWnuRGIR2q+xu8tPchiDtV9jd5ae5DEHar7G7y09yGIO1X2N3lp7kMQdqvsbvLT3IYg7VfY3eWnuQxB2q+xu8tPchiDtV9jd5ae5DEHar7G7y09yJxB2q+yrd5ae5DEHar7PqE2e4AAAAAB5PbWjfgG2L4Kf8kCJU1JxWXzVvZ6UVy5N8G9npQyb4N7PShk3wb2elDJvg3s9KGTfBvZ6UMm+Dez0oZN8K4ULuUhE2ZVmjdkREs7MxLIQySEAAAAAAAAAAAAAVBL6lNnsAAAAAAeW20F/odr6lP+SBE8M9byS+dcToM3n5MToBkxOgGTE6AZMToBkxOgGTE6AZFT6AZZFKncukKWnK4QqAAAAAAAAAAAAAAqCX1KbPYAAAAAA8ztlfotq6lP8AkgRbhlr/AJcvn4yeWAAAAAAAAAAAAAAAAAAAAAAAAFQS+pTZ7AAAAAAHmdsr9FtXUp/yQItwy1/y5fPxk8sAAAAAAAAAAAAAAAAAAAAAAAAKgl9Smz2AAAAAAPM7ZK/0a1dSH8kCLcMtf8uXz8ZPLAAAAAAAAAAAAAAAAAAAAAAAAC9uMuZL5MLYl9Qmz1wAAAAAMXCdhhaLPUs1W906tOdOV2dKSuvXSJRaItGJfPmyLYta7DVlCtRlKmm8S004t0KkeR3rivoeXXnMsTDy76VqT4tKQzAAAAAAAAAAAAAAAAAAAAAAPSbFNhlpt9aKdKpRst6dW0Ti4xxOVU7+NJ9F6XL0zEZbaeja8/DuPANk92p/I0w9HbD/2Q==;" vertex="1" parent="1">
          <mxGeometry x="80" y="2836.58" width="93.68" height="86.85" as="geometry" />
        </mxCell>
      </root>
    </mxGraphModel>
  </diagram>
  <diagram id="kwhxcDG7tTyR6BjXnGNR" name="Reporting">
    <mxGraphModel dx="1038" dy="-1799" grid="0" gridSize="10" guides="1" tooltips="1" connect="1" arrows="1" fold="1" page="1" pageScale="1" pageWidth="827" pageHeight="1169" math="0" shadow="0">
      <root>
        <mxCell id="0" />
        <mxCell id="1" parent="0" />
        <mxCell id="_fAyBmBWr-zUxQFBPqF1-1" value="" style="shape=image;verticalLabelPosition=bottom;labelBackgroundColor=default;verticalAlign=top;aspect=fixed;imageAspect=0;image=https://mms.businesswire.com/media/20200304005595/en/777583/23/vena-logo_v1.jpg;" vertex="1" parent="1">
          <mxGeometry x="586" y="2482" width="140.69" height="73.59" as="geometry" />
        </mxCell>
        <mxCell id="_fAyBmBWr-zUxQFBPqF1-2" value="" style="shape=image;verticalLabelPosition=bottom;labelBackgroundColor=default;verticalAlign=top;aspect=fixed;imageAspect=0;image=data:image/jpeg,/9j/4AAQSkZJRgABAQAAAQABAAD/2wCEAAkGBxAQDRINDQ0QDQ0REA8RDw0NERAQDQ4OFRgWFhUSFRUYHSggGRsnHRcVITEtJSkrLjowIx8zPzUvNysuLi0BCgoKDg0OGhAQGi0lHyMtKy0tKy0zLSstKy0tNS0tLzUtLS0vLS0rLS0vLS0uKy0tLS0tLSsrLS0tLS0tKy0tLf/AABEIANgA6QMBEQACEQEDEQH/xAAcAAEAAQUBAQAAAAAAAAAAAAAAAQIDBAUHBgj/xABDEAACAQECBg4JAwMEAwAAAAAAAQIDBBEFEiExUXEGBxMUFTJBUmFygaGx0SIzQlRikZOi4TWysyOCkiXB0vAXQ1P/xAAaAQEAAwEBAQAAAAAAAAAAAAAAAQIDBAUG/8QALxEBAAIBAwIFAgYCAwEAAAAAAAECEQMSMQQTITJBUWFSkQUzNHGx0YHwIkPhFf/aAAwDAQACEQMRAD8A7iAAAAAACxbrVGjRnWqcSnCU5XZ7kr7l0hTUvFKzaeIcewzh60WqblVqSjBv0aMJNUoR5Fdyvpf4MZmZfNa3U6mtObT4e3o1hDnAAAAAAAAAADZWL1a1vxDO3K+FQAAAAAAAABtcDYdq2aaePKdG9Y9KTbWLyuN+ZkxbDs6brdTRtzmvrH9OhcJ0P/rE1zD6Xv6fuyyWoAAAAAGj2bfplo6sP3xK24cnXfp7OQGT5oAAAAAAAAAAAGysXq1rfiGduV8KgAAAAAAAAABcx3pfzC+6fd143fZgAAAAAaPZv+mWjqw/fErbhydd+ns5AZPmgAAAAAAAAAAAbKxerWt+IZ25XwqAAAAAAAAAAFQS7AbvtQAAAAANHs3/AEy0dWH74lbcOTrv09nIDJ80AAAAAAAAAAADZWL1a1vxDO3K+FQAAAAAAAAAAqCXYDd9qAAAAABo9m/6ZaOrD98StuHJ136ezkBk+aAAAAAAAAAAABsrF6ta34hnblfCoAAAAAAAAAAVBLsBu+1AAAAAA0Ozl3YLtD+GH74kW4cvW/kWcc3Z6EZYfObTdnoQwbTdnoQwbTdnoQwbTdnoQwbTdnoQwbTdnoQwbTdnoQwbUxraRhE1XSFQDZWL1a1vxDO3K+FQAAAAAAAAAAqCWXs12a15152ax1JUKFOThKpTd1WrNZJNSzxineldrvy3K1rez3Oq6y82mlJxEPIvClp96tH1qvmVzLi7t/qn7yjhS0e9Wj61XzGZO7f6p+8nClp96tH1qvmMyd2/1T95RwpaPerR9ar5jMndv9U/eThS0+9Wj61XzGZO7f6p+8qKuEK8ouM7RWnF54zq1JRetNjJOpeYxMz92PjPSyFDGelgRjPSwkxnpYQjGelhJjPS/mBGM9LAsV24rHjKSuzq9tXaiYlpSYnwmF+yYRhOPpO6Sz5Hc+klXU0prPgz6dsp3L0u6XkQwmk5Vb8p87ul5EI2S2dhtcNzXpcr5JadRLO1Zyv76hzu6XkFdsm+oc7ul5A2yb6hzu6XkDbJvqHO7peQNsm+oc7ul5A2yb6hzu6XkDbJvqHO7peQNsm+oc7ul5A2yb6hzu6XkDbJvqHO7peQNsqt9Q53c/IJ2y8xJ3tt5W223pZDrlSEAEAAIAAQEgEAAAEEABbr8SXVl4ErV80NVg/jPUTLq1uIbSnmKuWeVQQ2lg9Wtb8SWF+WQSqAAAAAAAAAAFQS1LIbIAAAIABKAAEAAIAEABAFFfiS6svAmFq+aGqwfxnqJl1a3ENpTzFXLPKoIbSwerWt+JLC/LIJVAAAAAAAAAACoJahkNgCAAHusAbAqNsssLTTt0kpK6UNyi3TqLJKD9Lkfdc+UvFMw9HR6KmrSLRZsf8AxXH3+X0V/wAie21/+bH1Od4TsM7PXqWeqrqlKbi9D0SXQ1c1rM58HmXpNLTWfRjBU79WcDoth2rnKlCda1ulVlGLnTVJSVOTV7jfjZbsxftvTr+HZiJtbxWcMbXlGy2apaa2EJYlON9yoxxpSzRgvTzt3ITTEI1Ohrp1m024c+M3mgAC3X4kurLwC1fNDV4P4z1FpdWtxDaU8xVyzyqCG0sHq1rfiSwvyyCVQAAAAAAAAAAqCWoZDZAEBIB6/a22Qb2te96srrPaGo5c1OvmhLU+K/7dBak4l29Dr9u+2eJ/l2M2e25vttYEyQwhTWa6lXu0P1c32vF7Y6DO8erzPxDR41I/aXMzJ5T2O1ngLfNs3zUjfQszUsuadf2I9nG/x0l6RmXd0OjvvuniP5djNntOQbZ2yLfFp3nSlfQs8njtZqlozPsjljrxugxvbM4eN12vvtsjiP5/8eJKOBAC8JW679CXVl4BNfNDWYP4z1FpdWtxDaU8xVyzyqCG0sHq1rfiSwvyyCVQAAAAAAAAAAqCWnZDdAACAIYHbNr7ZDvyxqNSV9poXQq355r2Knak7+lM2pbMPd6TX7tPHmOXoMIWOFejOhVWNTqQlCS5bmrr1oZaYy6b1i1ZrPq4Bb8FVaNrlYnFzrxqqlGKybpKTWI11k4taznmPHD52+nat9nrnDuWxnA0bFY6dmjc5JY1Wa9uq+NL/ZdCRvWMQ9/Q0o0qRWGu2e7Id5WN7nK601r4UdMedU/tTXa4kXtiGXV6/ap4czw4gYPBReBF4SgCitxJdWXgStXmGtwfxnqJl063ENpTzFXLPKoIbSwerWt+JLC/LIJVAAAAAAAAAACoJaZkN0AAIAEDbbFsNysNshaFe6fErQXt0XxlrWRrpSJicS26fWnSvFvT1d7oVozhGpCSnCcVKEo5VKLV6a6LjofQxMTGYam07HqU8I0sIv1lKlOGLdklP2J60nUXbHQV2+OWVtCs6sanrH+/22tetGnCVSpJQhCMpTlLIoxSvbfYWazMRGZcE2VYclbrZO0O9U+JRg/YorN2vK30voOeZzL5/qNadW829PRp7yGKAAEXhK3WfoS6svAlavMNfg/jPUTLo1uIbSnmKuWeVQQ2lg9Wtb8SWF+WQSqAAAAAAAAAAFQS0rIboAEABAADtG1hGusGR3f1bnJ2ZO/HVB6ei/Ga6LuS42pnD3Oh3dqN3+P2etLux5HbQp13gyW4P+mpxlaUr8d0Fo6FLFb6L+S8pfOHH10WnSnb/n9nFbzF4gBF4Si8CALdd+hLqy8CYXpH/KGrsNb0nk5NJeYdmrpZjlsoWnJxe8rhzzo+PKrfPw9/4GEdj5bCx2+6CWJp9r8EcOfU0sW5XuEfg+78DLPt/Jwj8H3fgZO38nCPwfd+Bk7fycI/B934GTt/Jwj8H3fgZO38nCPwfd+Bk7fycI/B934GTt/Jwj8H3fgZO38nCPwfd+Bk7fycI/B934GTt/KrhD4Pu/Aynt/LDZC6AIAAAN9sL2PO32tU5J73p3TtElevQ5IJ6ZNXar3yFqxmXR02h3b4niOXdYQUUoxSjFJJRSuSSzJI3fQPPUtllKWFpYMV2SnkqabQr5Spf43dqkiu7xw546is63b/ANy9DUgpRcZJSi01KLV6aeRpos6HBdmeAHYLZKkk9wn6dnk73fTfst6YvJ8nymFoxLwOp0e1fHp6NDeVYIAXhKLwLdfiS6svAmFqeaP3aexZ3qNJejqcM+GYqxlUEMuz8RdpWeXLq+ZdIZgAAAAAAAAABUEpYVQAAAVUaUpzjTpxc5zlGMILPKUncku0JiJmcQ7xsRwDGw2SNFXOrL06817dV57uhZlq6TesYh9B0+jGlTb6+qrZdhtWGxVLRkdTiUYv2q0uL2LLJ9CYtOITr6vapNvs4LTtVSNVV4ze7KaqKq8st1vxsZ6XflMHgRaYtu9eX0BscwvG2WOnaoXLHj6cF7FVZJx7Hf2XM6InMZfQ6OpGpSLQwtm2x5W+xypxS3xC+dnk8n9RLit6JLJ8nyEWrmFOp0e7THr6OCzi03GScZJtSjJXSjJZGmuRmDwcKbwIvAgJW679CXVl4EwtTzQ1NizvUaS9DU4Z8MxVjKoIZdn4i7Ss8uXV8y6QzAAAAAAAAAACoJGFQCAIvCXStqnY3e+Eq0edCzRfynV8Yr+7oNKV9Xp9Bof9k/4/t001eo4ntlYf31bXSpyvs9mcqcbs06v/ALJ/NYq1X8pjecy8XrNbuXxHEfy8jeUcb3G1Vh/cLU7HUldRtLWJfmjaErl/kvR1qJek4nDv6HW222TxP8uxGz13JNtjY5uVVYRox/pVWo10lkhW5J6pXZenrGV648XlddoYnuR68uembgReBF4FuvxJdWXgTC1PNDVWLO9RpL0NThnwzFWMqghl2fiLtKzy5dXzLpDMAAAAAAAAAAKgkYVU3hKLwKqTjjRdROUMZY8YNRk435UnyO7lCYxnxdIs+2lSpwjTp4NcKcIxjCEa0UoxSuSXoaDXf8PTj8QrEYiqzhPbTlUoVKdCySo1ZwcYVnVUtzbyYyWKsq5Om4ibov8AiGazFa4lzgzeaXhJGbTUotxkmnGUXdKLWVNPkYHS7Nts3U4qrYXOooxU5xqqMZTuyySxcib5DXuPTj8Q8PGq1hLbOo2ihOz1sGylSqRcZLd433PlXoZGs66SJvlFuuraJrNXNX/2/OZvOQACVus/Ql1ZeBMLU80NXYs71Gku/U4Z8MxVjKoIZdn4i7Ss8uXV8y6QzAAAAAAAAAACoJUthCAIvCUXgQACUXgQBASi8CLwASi8CLwLdbiS6svAmF6eaGtsWd6jSXdqcM+GYqxlUEMuz8RdpWeXLq+ZdIZgAAAAAAAAABUEqZK5tPI02mtDBhTeBAEBKLwIvAgJLwIvAgCLwlF4EAAlbrP0JdWXgTC1PNDXWLO9RpLu1OGfDMVYyqCGXZ+Iu0rPLl1fMukMwAAAAAAAAAAqCXuNnWwavC0VLVYqUq9CrJzlSprGq0pyd8ko55Rbyq7NmuyXu9qesPQ6npLRabUjMS8c8E2r3S0fQq+RXEuPtX+mftKOCbV7paPo1fIYk7V/pn7I4JtXulo+jV8hiU9q/wBM/ZHBNq90tH0KvkMSdq/0z9kcE2r3S0fQq+QxJ2r/AEz9luvg+vTi51LPWpwXGnUpVIwjyZW1chiSdO8ek/Zh7rHnR+aCNs+yN1jzo/NDBtn2RusecvmhhO2fZG6x5y+aBtn2N1jzl80MG2fZG6x5y+aGE7Z9kOrHnR+aGDbPswbbbE1iQd9+eSzXaEWrV06OjMTusosWd6i0tb8M+GYqxlUEK41ZJXJ5OwYVmlZnMp3eWnuRGIR2q+xu8tPchiDtV9jd5ae5DEHar7G7y09yGIO1X2N3lp7kMQdqvsbvLT3IYg7VfY3eWnuQxB2q+xu8tPchiDtV9jd5ae5DEHar7G7y09yJxB2q+yrd5ae5DEHar7PqE2e4AAAAAB5PbWjfgG2L4Kf8kCJU1JxWXzVvZ6UVy5N8G9npQyb4N7PShk3wb2elDJvg3s9KGTfBvZ6UMm+Dez0oZN8K4ULuUhE2ZVmjdkREs7MxLIQySEAAAAAAAAAAAAAVBL6lNnsAAAAAAeW20F/odr6lP+SBE8M9byS+dcToM3n5MToBkxOgGTE6AZMToBkxOgGTE6AZFT6AZZFKncukKWnK4QqAAAAAAAAAAAAAAqCX1KbPYAAAAAA8ztlfotq6lP8AkgRbhlr/AJcvn4yeWAAAAAAAAAAAAAAAAAAAAAAAAFQS+pTZ7AAAAAAHmdsr9FtXUp/yQItwy1/y5fPxk8sAAAAAAAAAAAAAAAAAAAAAAAAKgl9Smz2AAAAAAPM7ZK/0a1dSH8kCLcMtf8uXz8ZPLAAAAAAAAAAAAAAAAAAAAAAAAC9uMuZL5MLYl9Qmz1wAAAAAMXCdhhaLPUs1W906tOdOV2dKSuvXSJRaItGJfPmyLYta7DVlCtRlKmm8S004t0KkeR3rivoeXXnMsTDy76VqT4tKQzAAAAAAAAAAAAAAAAAAAAAAPSbFNhlpt9aKdKpRst6dW0Ti4xxOVU7+NJ9F6XL0zEZbaeja8/DuPANk92p/I0w9HbD/2Q==;" vertex="1" parent="1">
          <mxGeometry x="421" y="2486" width="62.2" height="57.66" as="geometry" />
        </mxCell>
        <mxCell id="He-_49iV1H4pxyBLzj7t-1" value="Reporting Tools" style="text;html=1;align=center;verticalAlign=middle;resizable=0;points=[];autosize=1;strokeColor=none;fillColor=none;fontSize=33;" vertex="1" parent="1">
          <mxGeometry x="253" y="2370" width="239" height="44" as="geometry" />
        </mxCell>
        <mxCell id="rqSalVqprre_uhlwqhH3-1" value="" style="shape=image;verticalLabelPosition=bottom;labelBackgroundColor=default;verticalAlign=top;aspect=fixed;imageAspect=0;image=https://www.wiseitinc.com/wp-content/uploads/2015/09/BW-logo.png;" vertex="1" parent="1">
          <mxGeometry x="36" y="2484" width="111.27" height="54.95" as="geometry" />
        </mxCell>
        <mxCell id="rqSalVqprre_uhlwqhH3-2" value="" style="shape=image;verticalLabelPosition=bottom;labelBackgroundColor=default;verticalAlign=top;aspect=fixed;imageAspect=0;image=https://roi4cio.com/fileadmin/user_upload/SAP_BPC.jpg;" vertex="1" parent="1">
          <mxGeometry x="212" y="2478" width="147.81" height="69.07" as="geometry" />
        </mxCell>
      </root>
    </mxGraphModel>
  </diagram>
  <diagram id="gfea_Xfbg00QnWKohsuf" name="Page-4">
    <mxGraphModel dx="1730" dy="898" grid="0" gridSize="10" guides="1" tooltips="1" connect="1" arrows="1" fold="1" page="1" pageScale="1" pageWidth="1169" pageHeight="827" math="0" shadow="0">
      <root>
        <mxCell id="0" />
        <mxCell id="1" parent="0" />
      </root>
    </mxGraphModel>
  </diagram>
</mxfile>
